<?xml version="1.0" encoding="utf-8" standalone="no"?>
<!DOCTYPE svg PUBLIC "-//W3C//DTD SVG 1.1//EN"
  "http://www.w3.org/Graphics/SVG/1.1/DTD/svg11.dtd">
<svg xmlns:xlink="http://www.w3.org/1999/xlink" width="478.937687pt" height="263.88pt" viewBox="0 0 478.937687 263.88" xmlns="http://www.w3.org/2000/svg" version="1.1">
 <metadata>
  <rdf:RDF xmlns:dc="http://purl.org/dc/elements/1.1/" xmlns:cc="http://creativecommons.org/ns#" xmlns:rdf="http://www.w3.org/1999/02/22-rdf-syntax-ns#">
   <cc:Work>
    <dc:type rdf:resource="http://purl.org/dc/dcmitype/StillImage"/>
    <dc:date>2026-04-15T20:37:14.531904</dc:date>
    <dc:format>image/svg+xml</dc:format>
    <dc:creator>
     <cc:Agent>
      <dc:title>Matplotlib v3.10.8, https://matplotlib.org/</dc:title>
     </cc:Agent>
    </dc:creator>
   </cc:Work>
  </rdf:RDF>
 </metadata>
 <defs>
  <style type="text/css">*{stroke-linejoin: round; stroke-linecap: butt}</style>
 </defs>
 <g id="figure_1">
  <g id="patch_1">
   <path d="M 0 263.88 
L 478.937687 263.88 
L 478.937687 0 
L 0 0 
z
" style="fill: #ffffff"/>
  </g>
  <g id="axes_1">
   <g id="patch_2">
    <path d="M 18.36 145.6614 
L 67.464 145.6614 
Q 76.392 145.6614 76.392 140.6718 
L 76.392 113.229 
Q 76.392 108.2394 67.464 108.2394 
L 18.36 108.2394 
Q 9.432 108.2394 9.432 113.229 
L 9.432 140.6718 
Q 9.432 145.6614 18.36 145.6614 
z
" clip-path="url(#pafa9fb0522)" style="fill: #f6f3ea; stroke: #1f3a5f; stroke-width: 1.8; stroke-linejoin: miter"/>
   </g>
   <g id="patch_3">
    <path d="M 116.568 145.6614 
L 165.672 145.6614 
Q 174.6 145.6614 174.6 140.6718 
L 174.6 113.229 
Q 174.6 108.2394 165.672 108.2394 
L 116.568 108.2394 
Q 107.64 108.2394 107.64 113.229 
L 107.64 140.6718 
Q 107.64 145.6614 116.568 145.6614 
z
" clip-path="url(#pafa9fb0522)" style="fill: #f6f3ea; stroke: #1f3a5f; stroke-width: 1.8; stroke-linejoin: miter"/>
   </g>
   <g id="patch_4">
    <path d="M 219.24 145.6614 
L 268.344 145.6614 
Q 277.272 145.6614 277.272 140.6718 
L 277.272 113.229 
Q 277.272 108.2394 268.344 108.2394 
L 219.24 108.2394 
Q 210.312 108.2394 210.312 113.229 
L 210.312 140.6718 
Q 210.312 145.6614 219.24 145.6614 
z
" clip-path="url(#pafa9fb0522)" style="fill: #f6f3ea; stroke: #1f3a5f; stroke-width: 1.8; stroke-linejoin: miter"/>
   </g>
   <g id="patch_5">
    <path d="M 321.912 145.6614 
L 371.016 145.6614 
Q 379.944 145.6614 379.944 140.6718 
L 379.944 113.229 
Q 379.944 108.2394 371.016 108.2394 
L 321.912 108.2394 
Q 312.984 108.2394 312.984 113.229 
L 312.984 140.6718 
Q 312.984 145.6614 321.912 145.6614 
z
" clip-path="url(#pafa9fb0522)" style="fill: #f6f3ea; stroke: #1f3a5f; stroke-width: 1.8; stroke-linejoin: miter"/>
   </g>
   <g id="patch_6">
    <path d="M 393.336 145.6614 
L 442.44 145.6614 
Q 451.368 145.6614 451.368 140.6718 
L 451.368 113.229 
Q 451.368 108.2394 442.44 108.2394 
L 393.336 108.2394 
Q 384.408 108.2394 384.408 113.229 
L 384.408 140.6718 
Q 384.408 145.6614 393.336 145.6614 
z
" clip-path="url(#pafa9fb0522)" style="fill: #f6f3ea; stroke: #1f3a5f; stroke-width: 1.8; stroke-linejoin: miter"/>
   </g>
   <g id="patch_7">
    <path d="M 60.909407 126.9504 
Q 92.014022 126.9504 121.106175 126.9504 
" clip-path="url(#pafa9fb0522)" style="fill: none; stroke: #1f3a5f; stroke-width: 1.8; stroke-linecap: round"/>
    <path d="M 115.906175 124.3504 
L 121.106175 126.9504 
L 115.906175 129.5504 
" clip-path="url(#pafa9fb0522)" style="fill: none; stroke: #1f3a5f; stroke-width: 1.8; stroke-linecap: round"/>
   </g>
   <g id="patch_8">
    <path d="M 159.120813 126.9504 
Q 192.455183 126.9504 223.777093 126.9504 
" clip-path="url(#pafa9fb0522)" style="fill: none; stroke: #1f3a5f; stroke-width: 1.8; stroke-linecap: round"/>
    <path d="M 218.577093 124.3504 
L 223.777093 126.9504 
L 218.577093 129.5504 
" clip-path="url(#pafa9fb0522)" style="fill: none; stroke: #1f3a5f; stroke-width: 1.8; stroke-linecap: round"/>
   </g>
   <g id="patch_9">
    <path d="M 261.792813 126.9504 
Q 295.127183 126.9504 326.449093 126.9504 
" clip-path="url(#pafa9fb0522)" style="fill: none; stroke: #1f3a5f; stroke-width: 1.8; stroke-linecap: round"/>
    <path d="M 321.249093 124.3504 
L 326.449093 126.9504 
L 321.249093 129.5504 
" clip-path="url(#pafa9fb0522)" style="fill: none; stroke: #1f3a5f; stroke-width: 1.8; stroke-linecap: round"/>
   </g>
   <g id="patch_10">
    <path d="M 364.463859 126.9504 
Q 382.174627 126.9504 397.872934 126.9504 
" clip-path="url(#pafa9fb0522)" style="fill: none; stroke: #b35c44; stroke-width: 1.8; stroke-linecap: round"/>
    <path d="M 392.672934 124.3504 
L 397.872934 126.9504 
L 392.672934 129.5504 
" clip-path="url(#pafa9fb0522)" style="fill: none; stroke: #b35c44; stroke-width: 1.8; stroke-linecap: round"/>
   </g>
   <g id="text_1">
    <!-- Empirical Risk Pipeline -->
    <g style="fill: #1f3a5f" transform="translate(16.128 28.576856) scale(0.15 -0.15)">
     <defs>
      <path id="DejaVuSans-Bold-45" d="M 588 4666 
L 3834 4666 
L 3834 3756 
L 1791 3756 
L 1791 2888 
L 3713 2888 
L 3713 1978 
L 1791 1978 
L 1791 909 
L 3903 909 
L 3903 0 
L 588 0 
L 588 4666 
z
" transform="scale(0.015625)"/>
      <path id="DejaVuSans-Bold-6d" d="M 3781 2919 
Q 3994 3244 4286 3414 
Q 4578 3584 4928 3584 
Q 5531 3584 5847 3212 
Q 6163 2841 6163 2131 
L 6163 0 
L 5038 0 
L 5038 1825 
Q 5041 1866 5042 1909 
Q 5044 1953 5044 2034 
Q 5044 2406 4934 2573 
Q 4825 2741 4581 2741 
Q 4263 2741 4089 2478 
Q 3916 2216 3909 1719 
L 3909 0 
L 2784 0 
L 2784 1825 
Q 2784 2406 2684 2573 
Q 2584 2741 2328 2741 
Q 2006 2741 1831 2477 
Q 1656 2213 1656 1722 
L 1656 0 
L 531 0 
L 531 3500 
L 1656 3500 
L 1656 2988 
Q 1863 3284 2130 3434 
Q 2397 3584 2719 3584 
Q 3081 3584 3359 3409 
Q 3638 3234 3781 2919 
z
" transform="scale(0.015625)"/>
      <path id="DejaVuSans-Bold-70" d="M 1656 506 
L 1656 -1331 
L 538 -1331 
L 538 3500 
L 1656 3500 
L 1656 2988 
Q 1888 3294 2169 3439 
Q 2450 3584 2816 3584 
Q 3463 3584 3878 3070 
Q 4294 2556 4294 1747 
Q 4294 938 3878 423 
Q 3463 -91 2816 -91 
Q 2450 -91 2169 54 
Q 1888 200 1656 506 
z
M 2400 2772 
Q 2041 2772 1848 2508 
Q 1656 2244 1656 1747 
Q 1656 1250 1848 986 
Q 2041 722 2400 722 
Q 2759 722 2948 984 
Q 3138 1247 3138 1747 
Q 3138 2247 2948 2509 
Q 2759 2772 2400 2772 
z
" transform="scale(0.015625)"/>
      <path id="DejaVuSans-Bold-69" d="M 538 3500 
L 1656 3500 
L 1656 0 
L 538 0 
L 538 3500 
z
M 538 4863 
L 1656 4863 
L 1656 3950 
L 538 3950 
L 538 4863 
z
" transform="scale(0.015625)"/>
      <path id="DejaVuSans-Bold-72" d="M 3138 2547 
Q 2991 2616 2845 2648 
Q 2700 2681 2553 2681 
Q 2122 2681 1889 2404 
Q 1656 2128 1656 1613 
L 1656 0 
L 538 0 
L 538 3500 
L 1656 3500 
L 1656 2925 
Q 1872 3269 2151 3426 
Q 2431 3584 2822 3584 
Q 2878 3584 2943 3579 
Q 3009 3575 3134 3559 
L 3138 2547 
z
" transform="scale(0.015625)"/>
      <path id="DejaVuSans-Bold-63" d="M 3366 3391 
L 3366 2478 
Q 3138 2634 2908 2709 
Q 2678 2784 2431 2784 
Q 1963 2784 1702 2511 
Q 1441 2238 1441 1747 
Q 1441 1256 1702 982 
Q 1963 709 2431 709 
Q 2694 709 2930 787 
Q 3166 866 3366 1019 
L 3366 103 
Q 3103 6 2833 -42 
Q 2563 -91 2291 -91 
Q 1344 -91 809 395 
Q 275 881 275 1747 
Q 275 2613 809 3098 
Q 1344 3584 2291 3584 
Q 2566 3584 2833 3536 
Q 3100 3488 3366 3391 
z
" transform="scale(0.015625)"/>
      <path id="DejaVuSans-Bold-61" d="M 2106 1575 
Q 1756 1575 1579 1456 
Q 1403 1338 1403 1106 
Q 1403 894 1545 773 
Q 1688 653 1941 653 
Q 2256 653 2472 879 
Q 2688 1106 2688 1447 
L 2688 1575 
L 2106 1575 
z
M 3816 1997 
L 3816 0 
L 2688 0 
L 2688 519 
Q 2463 200 2181 54 
Q 1900 -91 1497 -91 
Q 953 -91 614 226 
Q 275 544 275 1050 
Q 275 1666 698 1953 
Q 1122 2241 2028 2241 
L 2688 2241 
L 2688 2328 
Q 2688 2594 2478 2717 
Q 2269 2841 1825 2841 
Q 1466 2841 1156 2769 
Q 847 2697 581 2553 
L 581 3406 
Q 941 3494 1303 3539 
Q 1666 3584 2028 3584 
Q 2975 3584 3395 3211 
Q 3816 2838 3816 1997 
z
" transform="scale(0.015625)"/>
      <path id="DejaVuSans-Bold-6c" d="M 538 4863 
L 1656 4863 
L 1656 0 
L 538 0 
L 538 4863 
z
" transform="scale(0.015625)"/>
      <path id="DejaVuSans-Bold-20" transform="scale(0.015625)"/>
      <path id="DejaVuSans-Bold-52" d="M 2297 2597 
Q 2675 2597 2839 2737 
Q 3003 2878 3003 3200 
Q 3003 3519 2839 3656 
Q 2675 3794 2297 3794 
L 1791 3794 
L 1791 2597 
L 2297 2597 
z
M 1791 1766 
L 1791 0 
L 588 0 
L 588 4666 
L 2425 4666 
Q 3347 4666 3776 4356 
Q 4206 4047 4206 3378 
Q 4206 2916 3982 2619 
Q 3759 2322 3309 2181 
Q 3556 2125 3751 1926 
Q 3947 1728 4147 1325 
L 4800 0 
L 3519 0 
L 2950 1159 
Q 2778 1509 2601 1637 
Q 2425 1766 2131 1766 
L 1791 1766 
z
" transform="scale(0.015625)"/>
      <path id="DejaVuSans-Bold-73" d="M 3272 3391 
L 3272 2541 
Q 2913 2691 2578 2766 
Q 2244 2841 1947 2841 
Q 1628 2841 1473 2761 
Q 1319 2681 1319 2516 
Q 1319 2381 1436 2309 
Q 1553 2238 1856 2203 
L 2053 2175 
Q 2913 2066 3209 1816 
Q 3506 1566 3506 1031 
Q 3506 472 3093 190 
Q 2681 -91 1863 -91 
Q 1516 -91 1145 -36 
Q 775 19 384 128 
L 384 978 
Q 719 816 1070 734 
Q 1422 653 1784 653 
Q 2113 653 2278 743 
Q 2444 834 2444 1013 
Q 2444 1163 2330 1236 
Q 2216 1309 1875 1350 
L 1678 1375 
Q 931 1469 631 1722 
Q 331 1975 331 2491 
Q 331 3047 712 3315 
Q 1094 3584 1881 3584 
Q 2191 3584 2531 3537 
Q 2872 3491 3272 3391 
z
" transform="scale(0.015625)"/>
      <path id="DejaVuSans-Bold-6b" d="M 538 4863 
L 1656 4863 
L 1656 2216 
L 2944 3500 
L 4244 3500 
L 2534 1894 
L 4378 0 
L 3022 0 
L 1656 1459 
L 1656 0 
L 538 0 
L 538 4863 
z
" transform="scale(0.015625)"/>
      <path id="DejaVuSans-Bold-50" d="M 588 4666 
L 2584 4666 
Q 3475 4666 3951 4270 
Q 4428 3875 4428 3144 
Q 4428 2409 3951 2014 
Q 3475 1619 2584 1619 
L 1791 1619 
L 1791 0 
L 588 0 
L 588 4666 
z
M 1791 3794 
L 1791 2491 
L 2456 2491 
Q 2806 2491 2997 2661 
Q 3188 2831 3188 3144 
Q 3188 3456 2997 3625 
Q 2806 3794 2456 3794 
L 1791 3794 
z
" transform="scale(0.015625)"/>
      <path id="DejaVuSans-Bold-65" d="M 4031 1759 
L 4031 1441 
L 1416 1441 
Q 1456 1047 1700 850 
Q 1944 653 2381 653 
Q 2734 653 3104 758 
Q 3475 863 3866 1075 
L 3866 213 
Q 3469 63 3072 -14 
Q 2675 -91 2278 -91 
Q 1328 -91 801 392 
Q 275 875 275 1747 
Q 275 2603 792 3093 
Q 1309 3584 2216 3584 
Q 3041 3584 3536 3087 
Q 4031 2591 4031 1759 
z
M 2881 2131 
Q 2881 2450 2695 2645 
Q 2509 2841 2209 2841 
Q 1884 2841 1681 2658 
Q 1478 2475 1428 2131 
L 2881 2131 
z
" transform="scale(0.015625)"/>
      <path id="DejaVuSans-Bold-6e" d="M 4056 2131 
L 4056 0 
L 2931 0 
L 2931 347 
L 2931 1631 
Q 2931 2084 2911 2256 
Q 2891 2428 2841 2509 
Q 2775 2619 2662 2680 
Q 2550 2741 2406 2741 
Q 2056 2741 1856 2470 
Q 1656 2200 1656 1722 
L 1656 0 
L 538 0 
L 538 3500 
L 1656 3500 
L 1656 2988 
Q 1909 3294 2193 3439 
Q 2478 3584 2822 3584 
Q 3428 3584 3742 3212 
Q 4056 2841 4056 2131 
z
" transform="scale(0.015625)"/>
     </defs>
     <use xlink:href="#DejaVuSans-Bold-45"/>
     <use xlink:href="#DejaVuSans-Bold-6d" transform="translate(68.310547 0)"/>
     <use xlink:href="#DejaVuSans-Bold-70" transform="translate(172.509766 0)"/>
     <use xlink:href="#DejaVuSans-Bold-69" transform="translate(244.091797 0)"/>
     <use xlink:href="#DejaVuSans-Bold-72" transform="translate(278.369141 0)"/>
     <use xlink:href="#DejaVuSans-Bold-69" transform="translate(327.685547 0)"/>
     <use xlink:href="#DejaVuSans-Bold-63" transform="translate(361.962891 0)"/>
     <use xlink:href="#DejaVuSans-Bold-61" transform="translate(421.240234 0)"/>
     <use xlink:href="#DejaVuSans-Bold-6c" transform="translate(488.720703 0)"/>
     <use xlink:href="#DejaVuSans-Bold-20" transform="translate(522.998047 0)"/>
     <use xlink:href="#DejaVuSans-Bold-52" transform="translate(557.8125 0)"/>
     <use xlink:href="#DejaVuSans-Bold-69" transform="translate(634.814453 0)"/>
     <use xlink:href="#DejaVuSans-Bold-73" transform="translate(669.091797 0)"/>
     <use xlink:href="#DejaVuSans-Bold-6b" transform="translate(728.613281 0)"/>
     <use xlink:href="#DejaVuSans-Bold-20" transform="translate(795.117188 0)"/>
     <use xlink:href="#DejaVuSans-Bold-50" transform="translate(829.931641 0)"/>
     <use xlink:href="#DejaVuSans-Bold-69" transform="translate(903.222656 0)"/>
     <use xlink:href="#DejaVuSans-Bold-70" transform="translate(937.5 0)"/>
     <use xlink:href="#DejaVuSans-Bold-65" transform="translate(1009.082031 0)"/>
     <use xlink:href="#DejaVuSans-Bold-6c" transform="translate(1076.904297 0)"/>
     <use xlink:href="#DejaVuSans-Bold-69" transform="translate(1111.181641 0)"/>
     <use xlink:href="#DejaVuSans-Bold-6e" transform="translate(1145.458984 0)"/>
     <use xlink:href="#DejaVuSans-Bold-65" transform="translate(1216.650391 0)"/>
    </g>
   </g>
   <g id="text_2">
    <!-- $I$ -->
    <g transform="translate(40.962 130.537588) scale(0.13 -0.13)">
     <defs>
      <path id="DejaVuSans-Oblique-49" d="M 1081 4666 
L 1716 4666 
L 806 0 
L 172 0 
L 1081 4666 
z
" transform="scale(0.015625)"/>
     </defs>
     <use xlink:href="#DejaVuSans-Oblique-49" transform="translate(0 0.09375)"/>
    </g>
   </g>
   <g id="text_3">
    <!-- $X \times Y$ -->
    <g transform="translate(124.675 130.537588) scale(0.13 -0.13)">
     <defs>
      <path id="DejaVuSans-Oblique-58" d="M 878 4666 
L 1516 4666 
L 2316 2981 
L 3763 4666 
L 4500 4666 
L 2578 2438 
L 3738 0 
L 3103 0 
L 2163 1966 
L 459 0 
L -275 0 
L 1906 2509 
L 878 4666 
z
" transform="scale(0.015625)"/>
      <path id="DejaVuSans-d7" d="M 4488 3438 
L 3059 2003 
L 4488 575 
L 4116 197 
L 2681 1631 
L 1247 197 
L 878 575 
L 2303 2003 
L 878 3438 
L 1247 3816 
L 2681 2381 
L 4116 3816 
L 4488 3438 
z
" transform="scale(0.015625)"/>
      <path id="DejaVuSans-Oblique-59" d="M 403 4666 
L 1081 4666 
L 1953 2747 
L 3616 4666 
L 4325 4666 
L 2209 2222 
L 1778 0 
L 1147 0 
L 1575 2222 
L 403 4666 
z
" transform="scale(0.015625)"/>
     </defs>
     <use xlink:href="#DejaVuSans-Oblique-58" transform="translate(0 0.09375)"/>
     <use xlink:href="#DejaVuSans-d7" transform="translate(87.988281 0.09375)"/>
     <use xlink:href="#DejaVuSans-Oblique-59" transform="translate(191.259766 0.09375)"/>
    </g>
   </g>
   <g id="text_4">
    <!-- $Y \times Y$ -->
    <g transform="translate(227.867 130.537588) scale(0.13 -0.13)">
     <use xlink:href="#DejaVuSans-Oblique-59" transform="translate(0 0.09375)"/>
     <use xlink:href="#DejaVuSans-d7" transform="translate(80.566406 0.09375)"/>
     <use xlink:href="#DejaVuSans-Oblique-59" transform="translate(183.837891 0.09375)"/>
    </g>
   </g>
   <g id="text_5">
    <!-- $\mathbb{R}_{\geq 0}$ -->
    <g transform="translate(333.334 130.537588) scale(0.13 -0.13)">
     <defs>
      <path id="STIXGeneral-Italic-211d" d="M 1229 4179 
L 3360 4179 
Q 3827 4179 4108 3894 
Q 4390 3610 4390 3142 
Q 4390 2554 4060 2186 
Q 3731 1818 3149 1715 
L 4026 0 
L 2925 0 
L 2125 1690 
L 1549 1690 
L 1094 0 
L 109 0 
L 1229 4179 
z
M 3866 3821 
L 3392 2022 
Q 3770 2144 3962 2438 
Q 4154 2733 4154 3136 
Q 4154 3584 3866 3821 
z
M 3142 1978 
L 3648 3872 
Q 3450 3942 3296 3942 
L 2150 3942 
L 1613 1926 
L 2630 1926 
Q 2957 1926 3142 1978 
z
M 3629 237 
L 2899 1696 
Q 2829 1683 2682 1683 
Q 2630 1683 2531 1686 
Q 2432 1690 2387 1690 
L 3072 237 
L 3629 237 
z
M 1907 3942 
L 1408 3942 
L 416 237 
L 915 237 
L 1907 3942 
z
" transform="scale(0.015625)"/>
      <path id="DejaVuSans-2265" d="M 678 3175 
L 678 3725 
L 4684 2578 
L 4684 2047 
L 678 897 
L 678 1453 
L 3681 2309 
L 678 3175 
z
M 4684 531 
L 4684 0 
L 678 0 
L 678 531 
L 4684 531 
z
" transform="scale(0.015625)"/>
      <path id="DejaVuSans-30" d="M 2034 4250 
Q 1547 4250 1301 3770 
Q 1056 3291 1056 2328 
Q 1056 1369 1301 889 
Q 1547 409 2034 409 
Q 2525 409 2770 889 
Q 3016 1369 3016 2328 
Q 3016 3291 2770 3770 
Q 2525 4250 2034 4250 
z
M 2034 4750 
Q 2819 4750 3233 4129 
Q 3647 3509 3647 2328 
Q 3647 1150 3233 529 
Q 2819 -91 2034 -91 
Q 1250 -91 836 529 
Q 422 1150 422 2328 
Q 422 3509 836 4129 
Q 1250 4750 2034 4750 
z
" transform="scale(0.015625)"/>
     </defs>
     <use xlink:href="#STIXGeneral-Italic-211d" transform="translate(0 0.703125)"/>
     <use xlink:href="#DejaVuSans-2265" transform="translate(82.337677 -15.703125) scale(0.7)"/>
     <use xlink:href="#DejaVuSans-30" transform="translate(154.627716 -15.703125) scale(0.7)"/>
    </g>
   </g>
   <g id="text_6">
    <!-- $\mathbb{R}_{\geq 0}$ -->
    <g transform="translate(404.758 130.537588) scale(0.13 -0.13)">
     <use xlink:href="#STIXGeneral-Italic-211d" transform="translate(0 0.703125)"/>
     <use xlink:href="#DejaVuSans-2265" transform="translate(82.337677 -15.703125) scale(0.7)"/>
     <use xlink:href="#DejaVuSans-30" transform="translate(154.627716 -15.703125) scale(0.7)"/>
    </g>
   </g>
   <g id="text_7">
    <!-- $(x,y)$ -->
    <g style="fill: #1f3a5f" transform="translate(77.136 117.7764) scale(0.12 -0.12)">
     <defs>
      <path id="DejaVuSans-28" d="M 1984 4856 
Q 1566 4138 1362 3434 
Q 1159 2731 1159 2009 
Q 1159 1288 1364 580 
Q 1569 -128 1984 -844 
L 1484 -844 
Q 1016 -109 783 600 
Q 550 1309 550 2009 
Q 550 2706 781 3412 
Q 1013 4119 1484 4856 
L 1984 4856 
z
" transform="scale(0.015625)"/>
      <path id="DejaVuSans-Oblique-78" d="M 3841 3500 
L 2234 1784 
L 3219 0 
L 2559 0 
L 1819 1388 
L 531 0 
L -166 0 
L 1556 1844 
L 641 3500 
L 1300 3500 
L 1972 2234 
L 3144 3500 
L 3841 3500 
z
" transform="scale(0.015625)"/>
      <path id="DejaVuSans-2c" d="M 750 794 
L 1409 794 
L 1409 256 
L 897 -744 
L 494 -744 
L 750 256 
L 750 794 
z
" transform="scale(0.015625)"/>
      <path id="DejaVuSans-Oblique-79" d="M 1588 -325 
Q 1188 -997 936 -1164 
Q 684 -1331 294 -1331 
L -159 -1331 
L -63 -850 
L 269 -850 
Q 509 -850 678 -719 
Q 847 -588 1056 -206 
L 1234 128 
L 459 3500 
L 1069 3500 
L 1650 819 
L 3256 3500 
L 3859 3500 
L 1588 -325 
z
" transform="scale(0.015625)"/>
      <path id="DejaVuSans-29" d="M 513 4856 
L 1013 4856 
Q 1481 4119 1714 3412 
Q 1947 2706 1947 2009 
Q 1947 1309 1714 600 
Q 1481 -109 1013 -844 
L 513 -844 
Q 928 -128 1133 580 
Q 1338 1288 1338 2009 
Q 1338 2731 1133 3434 
Q 928 4138 513 4856 
z
" transform="scale(0.015625)"/>
     </defs>
     <use xlink:href="#DejaVuSans-28" transform="translate(0 0.125)"/>
     <use xlink:href="#DejaVuSans-Oblique-78" transform="translate(39.013672 0.125)"/>
     <use xlink:href="#DejaVuSans-2c" transform="translate(98.193359 0.125)"/>
     <use xlink:href="#DejaVuSans-Oblique-79" transform="translate(149.462891 0.125)"/>
     <use xlink:href="#DejaVuSans-29" transform="translate(208.642578 0.125)"/>
    </g>
   </g>
   <g id="text_8">
    <!-- $h \times \mathrm{id}_Y$ -->
    <g style="fill: #1f3a5f" transform="translate(173.016 117.78765) scale(0.12 -0.12)">
     <defs>
      <path id="DejaVuSans-Oblique-68" d="M 3566 2113 
L 3156 0 
L 2578 0 
L 2988 2091 
Q 3016 2238 3031 2350 
Q 3047 2463 3047 2528 
Q 3047 2791 2881 2937 
Q 2716 3084 2419 3084 
Q 1956 3084 1617 2771 
Q 1278 2459 1178 1941 
L 800 0 
L 225 0 
L 1172 4863 
L 1747 4863 
L 1375 2950 
Q 1594 3244 1934 3414 
Q 2275 3584 2650 3584 
Q 3113 3584 3367 3334 
Q 3622 3084 3622 2631 
Q 3622 2519 3608 2391 
Q 3594 2263 3566 2113 
z
" transform="scale(0.015625)"/>
      <path id="DejaVuSans-69" d="M 603 3500 
L 1178 3500 
L 1178 0 
L 603 0 
L 603 3500 
z
M 603 4863 
L 1178 4863 
L 1178 4134 
L 603 4134 
L 603 4863 
z
" transform="scale(0.015625)"/>
      <path id="DejaVuSans-64" d="M 2906 2969 
L 2906 4863 
L 3481 4863 
L 3481 0 
L 2906 0 
L 2906 525 
Q 2725 213 2448 61 
Q 2172 -91 1784 -91 
Q 1150 -91 751 415 
Q 353 922 353 1747 
Q 353 2572 751 3078 
Q 1150 3584 1784 3584 
Q 2172 3584 2448 3432 
Q 2725 3281 2906 2969 
z
M 947 1747 
Q 947 1113 1208 752 
Q 1469 391 1925 391 
Q 2381 391 2643 752 
Q 2906 1113 2906 1747 
Q 2906 2381 2643 2742 
Q 2381 3103 1925 3103 
Q 1469 3103 1208 2742 
Q 947 2381 947 1747 
z
" transform="scale(0.015625)"/>
     </defs>
     <use xlink:href="#DejaVuSans-Oblique-68" transform="translate(0 0.015625)"/>
     <use xlink:href="#DejaVuSans-d7" transform="translate(82.861328 0.015625)"/>
     <use xlink:href="#DejaVuSans-69" transform="translate(186.132812 0.015625)"/>
     <use xlink:href="#DejaVuSans-64" transform="translate(213.916016 0.015625)"/>
     <use xlink:href="#DejaVuSans-Oblique-59" transform="translate(278.349609 -16.390625) scale(0.7)"/>
    </g>
   </g>
   <g id="text_9">
    <!-- $\ell$ -->
    <g style="fill: #1f3a5f" transform="translate(292.608 117.78765) scale(0.12 -0.12)">
     <defs>
      <path id="DejaVuSans-Oblique-2113" d="M 950 838 
Q 1078 213 1350 213 
Q 1531 213 1766 572 
L 2181 572 
Q 1994 253 1775 88 
Q 1538 -91 1319 -91 
Q 831 -91 634 344 
L 400 0 
L -88 0 
Q 250 459 500 888 
Q 469 1131 469 1397 
Q 469 1872 566 2347 
Q 931 4131 1256 4497 
Q 1481 4750 1866 4750 
Q 2256 4750 2256 4209 
Q 2253 3966 2197 3675 
Q 1972 2484 950 838 
z
M 947 1656 
Q 1531 2744 1709 3613 
Q 1803 4072 1803 4191 
Q 1803 4406 1725 4406 
Q 1384 4134 1081 2516 
Q 997 2063 947 1656 
z
" transform="scale(0.015625)"/>
     </defs>
     <use xlink:href="#DejaVuSans-Oblique-2113" transform="translate(0 0.78125)"/>
    </g>
   </g>
   <g id="text_10">
    <!-- $\mathrm{avg}$ -->
    <g style="fill: #b35c44" transform="translate(371.136 117.763275) scale(0.12 -0.12)">
     <defs>
      <path id="DejaVuSans-61" d="M 2194 1759 
Q 1497 1759 1228 1600 
Q 959 1441 959 1056 
Q 959 750 1161 570 
Q 1363 391 1709 391 
Q 2188 391 2477 730 
Q 2766 1069 2766 1631 
L 2766 1759 
L 2194 1759 
z
M 3341 1997 
L 3341 0 
L 2766 0 
L 2766 531 
Q 2569 213 2275 61 
Q 1981 -91 1556 -91 
Q 1019 -91 701 211 
Q 384 513 384 1019 
Q 384 1609 779 1909 
Q 1175 2209 1959 2209 
L 2766 2209 
L 2766 2266 
Q 2766 2663 2505 2880 
Q 2244 3097 1772 3097 
Q 1472 3097 1187 3025 
Q 903 2953 641 2809 
L 641 3341 
Q 956 3463 1253 3523 
Q 1550 3584 1831 3584 
Q 2591 3584 2966 3190 
Q 3341 2797 3341 1997 
z
" transform="scale(0.015625)"/>
      <path id="DejaVuSans-76" d="M 191 3500 
L 800 3500 
L 1894 563 
L 2988 3500 
L 3597 3500 
L 2284 0 
L 1503 0 
L 191 3500 
z
" transform="scale(0.015625)"/>
      <path id="DejaVuSans-67" d="M 2906 1791 
Q 2906 2416 2648 2759 
Q 2391 3103 1925 3103 
Q 1463 3103 1205 2759 
Q 947 2416 947 1791 
Q 947 1169 1205 825 
Q 1463 481 1925 481 
Q 2391 481 2648 825 
Q 2906 1169 2906 1791 
z
M 3481 434 
Q 3481 -459 3084 -895 
Q 2688 -1331 1869 -1331 
Q 1566 -1331 1297 -1286 
Q 1028 -1241 775 -1147 
L 775 -588 
Q 1028 -725 1275 -790 
Q 1522 -856 1778 -856 
Q 2344 -856 2625 -561 
Q 2906 -266 2906 331 
L 2906 616 
Q 2728 306 2450 153 
Q 2172 0 1784 0 
Q 1141 0 747 490 
Q 353 981 353 1791 
Q 353 2603 747 3093 
Q 1141 3584 1784 3584 
Q 2172 3584 2450 3431 
Q 2728 3278 2906 2969 
L 2906 3500 
L 3481 3500 
L 3481 434 
z
" transform="scale(0.015625)"/>
     </defs>
     <use xlink:href="#DejaVuSans-61"/>
     <use xlink:href="#DejaVuSans-76" transform="translate(61.279297 0)"/>
     <use xlink:href="#DejaVuSans-67" transform="translate(120.458984 0)"/>
    </g>
   </g>
   <g id="text_11">
    <!-- Empirical risk is a composite once the sample index object and averaging map are -->
    <g style="fill: #7a8796" transform="translate(16.128 227.10595) scale(0.11 -0.11)">
     <defs>
      <path id="DejaVuSans-45" d="M 628 4666 
L 3578 4666 
L 3578 4134 
L 1259 4134 
L 1259 2753 
L 3481 2753 
L 3481 2222 
L 1259 2222 
L 1259 531 
L 3634 531 
L 3634 0 
L 628 0 
L 628 4666 
z
" transform="scale(0.015625)"/>
      <path id="DejaVuSans-6d" d="M 3328 2828 
Q 3544 3216 3844 3400 
Q 4144 3584 4550 3584 
Q 5097 3584 5394 3201 
Q 5691 2819 5691 2113 
L 5691 0 
L 5113 0 
L 5113 2094 
Q 5113 2597 4934 2840 
Q 4756 3084 4391 3084 
Q 3944 3084 3684 2787 
Q 3425 2491 3425 1978 
L 3425 0 
L 2847 0 
L 2847 2094 
Q 2847 2600 2669 2842 
Q 2491 3084 2119 3084 
Q 1678 3084 1418 2786 
Q 1159 2488 1159 1978 
L 1159 0 
L 581 0 
L 581 3500 
L 1159 3500 
L 1159 2956 
Q 1356 3278 1631 3431 
Q 1906 3584 2284 3584 
Q 2666 3584 2933 3390 
Q 3200 3197 3328 2828 
z
" transform="scale(0.015625)"/>
      <path id="DejaVuSans-70" d="M 1159 525 
L 1159 -1331 
L 581 -1331 
L 581 3500 
L 1159 3500 
L 1159 2969 
Q 1341 3281 1617 3432 
Q 1894 3584 2278 3584 
Q 2916 3584 3314 3078 
Q 3713 2572 3713 1747 
Q 3713 922 3314 415 
Q 2916 -91 2278 -91 
Q 1894 -91 1617 61 
Q 1341 213 1159 525 
z
M 3116 1747 
Q 3116 2381 2855 2742 
Q 2594 3103 2138 3103 
Q 1681 3103 1420 2742 
Q 1159 2381 1159 1747 
Q 1159 1113 1420 752 
Q 1681 391 2138 391 
Q 2594 391 2855 752 
Q 3116 1113 3116 1747 
z
" transform="scale(0.015625)"/>
      <path id="DejaVuSans-72" d="M 2631 2963 
Q 2534 3019 2420 3045 
Q 2306 3072 2169 3072 
Q 1681 3072 1420 2755 
Q 1159 2438 1159 1844 
L 1159 0 
L 581 0 
L 581 3500 
L 1159 3500 
L 1159 2956 
Q 1341 3275 1631 3429 
Q 1922 3584 2338 3584 
Q 2397 3584 2469 3576 
Q 2541 3569 2628 3553 
L 2631 2963 
z
" transform="scale(0.015625)"/>
      <path id="DejaVuSans-63" d="M 3122 3366 
L 3122 2828 
Q 2878 2963 2633 3030 
Q 2388 3097 2138 3097 
Q 1578 3097 1268 2742 
Q 959 2388 959 1747 
Q 959 1106 1268 751 
Q 1578 397 2138 397 
Q 2388 397 2633 464 
Q 2878 531 3122 666 
L 3122 134 
Q 2881 22 2623 -34 
Q 2366 -91 2075 -91 
Q 1284 -91 818 406 
Q 353 903 353 1747 
Q 353 2603 823 3093 
Q 1294 3584 2113 3584 
Q 2378 3584 2631 3529 
Q 2884 3475 3122 3366 
z
" transform="scale(0.015625)"/>
      <path id="DejaVuSans-6c" d="M 603 4863 
L 1178 4863 
L 1178 0 
L 603 0 
L 603 4863 
z
" transform="scale(0.015625)"/>
      <path id="DejaVuSans-20" transform="scale(0.015625)"/>
      <path id="DejaVuSans-73" d="M 2834 3397 
L 2834 2853 
Q 2591 2978 2328 3040 
Q 2066 3103 1784 3103 
Q 1356 3103 1142 2972 
Q 928 2841 928 2578 
Q 928 2378 1081 2264 
Q 1234 2150 1697 2047 
L 1894 2003 
Q 2506 1872 2764 1633 
Q 3022 1394 3022 966 
Q 3022 478 2636 193 
Q 2250 -91 1575 -91 
Q 1294 -91 989 -36 
Q 684 19 347 128 
L 347 722 
Q 666 556 975 473 
Q 1284 391 1588 391 
Q 1994 391 2212 530 
Q 2431 669 2431 922 
Q 2431 1156 2273 1281 
Q 2116 1406 1581 1522 
L 1381 1569 
Q 847 1681 609 1914 
Q 372 2147 372 2553 
Q 372 3047 722 3315 
Q 1072 3584 1716 3584 
Q 2034 3584 2315 3537 
Q 2597 3491 2834 3397 
z
" transform="scale(0.015625)"/>
      <path id="DejaVuSans-6b" d="M 581 4863 
L 1159 4863 
L 1159 1991 
L 2875 3500 
L 3609 3500 
L 1753 1863 
L 3688 0 
L 2938 0 
L 1159 1709 
L 1159 0 
L 581 0 
L 581 4863 
z
" transform="scale(0.015625)"/>
      <path id="DejaVuSans-6f" d="M 1959 3097 
Q 1497 3097 1228 2736 
Q 959 2375 959 1747 
Q 959 1119 1226 758 
Q 1494 397 1959 397 
Q 2419 397 2687 759 
Q 2956 1122 2956 1747 
Q 2956 2369 2687 2733 
Q 2419 3097 1959 3097 
z
M 1959 3584 
Q 2709 3584 3137 3096 
Q 3566 2609 3566 1747 
Q 3566 888 3137 398 
Q 2709 -91 1959 -91 
Q 1206 -91 779 398 
Q 353 888 353 1747 
Q 353 2609 779 3096 
Q 1206 3584 1959 3584 
z
" transform="scale(0.015625)"/>
      <path id="DejaVuSans-74" d="M 1172 4494 
L 1172 3500 
L 2356 3500 
L 2356 3053 
L 1172 3053 
L 1172 1153 
Q 1172 725 1289 603 
Q 1406 481 1766 481 
L 2356 481 
L 2356 0 
L 1766 0 
Q 1100 0 847 248 
Q 594 497 594 1153 
L 594 3053 
L 172 3053 
L 172 3500 
L 594 3500 
L 594 4494 
L 1172 4494 
z
" transform="scale(0.015625)"/>
      <path id="DejaVuSans-65" d="M 3597 1894 
L 3597 1613 
L 953 1613 
Q 991 1019 1311 708 
Q 1631 397 2203 397 
Q 2534 397 2845 478 
Q 3156 559 3463 722 
L 3463 178 
Q 3153 47 2828 -22 
Q 2503 -91 2169 -91 
Q 1331 -91 842 396 
Q 353 884 353 1716 
Q 353 2575 817 3079 
Q 1281 3584 2069 3584 
Q 2775 3584 3186 3129 
Q 3597 2675 3597 1894 
z
M 3022 2063 
Q 3016 2534 2758 2815 
Q 2500 3097 2075 3097 
Q 1594 3097 1305 2825 
Q 1016 2553 972 2059 
L 3022 2063 
z
" transform="scale(0.015625)"/>
      <path id="DejaVuSans-6e" d="M 3513 2113 
L 3513 0 
L 2938 0 
L 2938 2094 
Q 2938 2591 2744 2837 
Q 2550 3084 2163 3084 
Q 1697 3084 1428 2787 
Q 1159 2491 1159 1978 
L 1159 0 
L 581 0 
L 581 3500 
L 1159 3500 
L 1159 2956 
Q 1366 3272 1645 3428 
Q 1925 3584 2291 3584 
Q 2894 3584 3203 3211 
Q 3513 2838 3513 2113 
z
" transform="scale(0.015625)"/>
      <path id="DejaVuSans-68" d="M 3513 2113 
L 3513 0 
L 2938 0 
L 2938 2094 
Q 2938 2591 2744 2837 
Q 2550 3084 2163 3084 
Q 1697 3084 1428 2787 
Q 1159 2491 1159 1978 
L 1159 0 
L 581 0 
L 581 4863 
L 1159 4863 
L 1159 2956 
Q 1366 3272 1645 3428 
Q 1925 3584 2291 3584 
Q 2894 3584 3203 3211 
Q 3513 2838 3513 2113 
z
" transform="scale(0.015625)"/>
      <path id="DejaVuSans-78" d="M 3513 3500 
L 2247 1797 
L 3578 0 
L 2900 0 
L 1881 1375 
L 863 0 
L 184 0 
L 1544 1831 
L 300 3500 
L 978 3500 
L 1906 2253 
L 2834 3500 
L 3513 3500 
z
" transform="scale(0.015625)"/>
      <path id="DejaVuSans-62" d="M 3116 1747 
Q 3116 2381 2855 2742 
Q 2594 3103 2138 3103 
Q 1681 3103 1420 2742 
Q 1159 2381 1159 1747 
Q 1159 1113 1420 752 
Q 1681 391 2138 391 
Q 2594 391 2855 752 
Q 3116 1113 3116 1747 
z
M 1159 2969 
Q 1341 3281 1617 3432 
Q 1894 3584 2278 3584 
Q 2916 3584 3314 3078 
Q 3713 2572 3713 1747 
Q 3713 922 3314 415 
Q 2916 -91 2278 -91 
Q 1894 -91 1617 61 
Q 1341 213 1159 525 
L 1159 0 
L 581 0 
L 581 4863 
L 1159 4863 
L 1159 2969 
z
" transform="scale(0.015625)"/>
      <path id="DejaVuSans-6a" d="M 603 3500 
L 1178 3500 
L 1178 -63 
Q 1178 -731 923 -1031 
Q 669 -1331 103 -1331 
L -116 -1331 
L -116 -844 
L 38 -844 
Q 366 -844 484 -692 
Q 603 -541 603 -63 
L 603 3500 
z
M 603 4863 
L 1178 4863 
L 1178 4134 
L 603 4134 
L 603 4863 
z
" transform="scale(0.015625)"/>
     </defs>
     <use xlink:href="#DejaVuSans-45"/>
     <use xlink:href="#DejaVuSans-6d" transform="translate(63.183594 0)"/>
     <use xlink:href="#DejaVuSans-70" transform="translate(160.595703 0)"/>
     <use xlink:href="#DejaVuSans-69" transform="translate(224.072266 0)"/>
     <use xlink:href="#DejaVuSans-72" transform="translate(251.855469 0)"/>
     <use xlink:href="#DejaVuSans-69" transform="translate(292.96875 0)"/>
     <use xlink:href="#DejaVuSans-63" transform="translate(320.751953 0)"/>
     <use xlink:href="#DejaVuSans-61" transform="translate(375.732422 0)"/>
     <use xlink:href="#DejaVuSans-6c" transform="translate(437.011719 0)"/>
     <use xlink:href="#DejaVuSans-20" transform="translate(464.794922 0)"/>
     <use xlink:href="#DejaVuSans-72" transform="translate(496.582031 0)"/>
     <use xlink:href="#DejaVuSans-69" transform="translate(537.695312 0)"/>
     <use xlink:href="#DejaVuSans-73" transform="translate(565.478516 0)"/>
     <use xlink:href="#DejaVuSans-6b" transform="translate(617.578125 0)"/>
     <use xlink:href="#DejaVuSans-20" transform="translate(675.488281 0)"/>
     <use xlink:href="#DejaVuSans-69" transform="translate(707.275391 0)"/>
     <use xlink:href="#DejaVuSans-73" transform="translate(735.058594 0)"/>
     <use xlink:href="#DejaVuSans-20" transform="translate(787.158203 0)"/>
     <use xlink:href="#DejaVuSans-61" transform="translate(818.945312 0)"/>
     <use xlink:href="#DejaVuSans-20" transform="translate(880.224609 0)"/>
     <use xlink:href="#DejaVuSans-63" transform="translate(912.011719 0)"/>
     <use xlink:href="#DejaVuSans-6f" transform="translate(966.992188 0)"/>
     <use xlink:href="#DejaVuSans-6d" transform="translate(1028.173828 0)"/>
     <use xlink:href="#DejaVuSans-70" transform="translate(1125.585938 0)"/>
     <use xlink:href="#DejaVuSans-6f" transform="translate(1189.0625 0)"/>
     <use xlink:href="#DejaVuSans-73" transform="translate(1250.244141 0)"/>
     <use xlink:href="#DejaVuSans-69" transform="translate(1302.34375 0)"/>
     <use xlink:href="#DejaVuSans-74" transform="translate(1330.126953 0)"/>
     <use xlink:href="#DejaVuSans-65" transform="translate(1369.335938 0)"/>
     <use xlink:href="#DejaVuSans-20" transform="translate(1430.859375 0)"/>
     <use xlink:href="#DejaVuSans-6f" transform="translate(1462.646484 0)"/>
     <use xlink:href="#DejaVuSans-6e" transform="translate(1523.828125 0)"/>
     <use xlink:href="#DejaVuSans-63" transform="translate(1587.207031 0)"/>
     <use xlink:href="#DejaVuSans-65" transform="translate(1642.1875 0)"/>
     <use xlink:href="#DejaVuSans-20" transform="translate(1703.710938 0)"/>
     <use xlink:href="#DejaVuSans-74" transform="translate(1735.498047 0)"/>
     <use xlink:href="#DejaVuSans-68" transform="translate(1774.707031 0)"/>
     <use xlink:href="#DejaVuSans-65" transform="translate(1838.085938 0)"/>
     <use xlink:href="#DejaVuSans-20" transform="translate(1899.609375 0)"/>
     <use xlink:href="#DejaVuSans-73" transform="translate(1931.396484 0)"/>
     <use xlink:href="#DejaVuSans-61" transform="translate(1983.496094 0)"/>
     <use xlink:href="#DejaVuSans-6d" transform="translate(2044.775391 0)"/>
     <use xlink:href="#DejaVuSans-70" transform="translate(2142.1875 0)"/>
     <use xlink:href="#DejaVuSans-6c" transform="translate(2205.664062 0)"/>
     <use xlink:href="#DejaVuSans-65" transform="translate(2233.447266 0)"/>
     <use xlink:href="#DejaVuSans-20" transform="translate(2294.970703 0)"/>
     <use xlink:href="#DejaVuSans-69" transform="translate(2326.757812 0)"/>
     <use xlink:href="#DejaVuSans-6e" transform="translate(2354.541016 0)"/>
     <use xlink:href="#DejaVuSans-64" transform="translate(2417.919922 0)"/>
     <use xlink:href="#DejaVuSans-65" transform="translate(2481.396484 0)"/>
     <use xlink:href="#DejaVuSans-78" transform="translate(2541.169922 0)"/>
     <use xlink:href="#DejaVuSans-20" transform="translate(2600.349609 0)"/>
     <use xlink:href="#DejaVuSans-6f" transform="translate(2632.136719 0)"/>
     <use xlink:href="#DejaVuSans-62" transform="translate(2693.318359 0)"/>
     <use xlink:href="#DejaVuSans-6a" transform="translate(2756.794922 0)"/>
     <use xlink:href="#DejaVuSans-65" transform="translate(2784.578125 0)"/>
     <use xlink:href="#DejaVuSans-63" transform="translate(2846.101562 0)"/>
     <use xlink:href="#DejaVuSans-74" transform="translate(2901.082031 0)"/>
     <use xlink:href="#DejaVuSans-20" transform="translate(2940.291016 0)"/>
     <use xlink:href="#DejaVuSans-61" transform="translate(2972.078125 0)"/>
     <use xlink:href="#DejaVuSans-6e" transform="translate(3033.357422 0)"/>
     <use xlink:href="#DejaVuSans-64" transform="translate(3096.736328 0)"/>
     <use xlink:href="#DejaVuSans-20" transform="translate(3160.212891 0)"/>
     <use xlink:href="#DejaVuSans-61" transform="translate(3192 0)"/>
     <use xlink:href="#DejaVuSans-76" transform="translate(3253.279297 0)"/>
     <use xlink:href="#DejaVuSans-65" transform="translate(3312.458984 0)"/>
     <use xlink:href="#DejaVuSans-72" transform="translate(3373.982422 0)"/>
     <use xlink:href="#DejaVuSans-61" transform="translate(3415.095703 0)"/>
     <use xlink:href="#DejaVuSans-67" transform="translate(3476.375 0)"/>
     <use xlink:href="#DejaVuSans-69" transform="translate(3539.851562 0)"/>
     <use xlink:href="#DejaVuSans-6e" transform="translate(3567.634766 0)"/>
     <use xlink:href="#DejaVuSans-67" transform="translate(3631.013672 0)"/>
     <use xlink:href="#DejaVuSans-20" transform="translate(3694.490234 0)"/>
     <use xlink:href="#DejaVuSans-6d" transform="translate(3726.277344 0)"/>
     <use xlink:href="#DejaVuSans-61" transform="translate(3823.689453 0)"/>
     <use xlink:href="#DejaVuSans-70" transform="translate(3884.96875 0)"/>
     <use xlink:href="#DejaVuSans-20" transform="translate(3948.445312 0)"/>
     <use xlink:href="#DejaVuSans-61" transform="translate(3980.232422 0)"/>
     <use xlink:href="#DejaVuSans-72" transform="translate(4041.511719 0)"/>
     <use xlink:href="#DejaVuSans-65" transform="translate(4080.375 0)"/>
    </g>
    <!-- explicit. -->
    <g style="fill: #7a8796" transform="translate(16.128 239.423544) scale(0.11 -0.11)">
     <defs>
      <path id="DejaVuSans-2e" d="M 684 794 
L 1344 794 
L 1344 0 
L 684 0 
L 684 794 
z
" transform="scale(0.015625)"/>
     </defs>
     <use xlink:href="#DejaVuSans-65"/>
     <use xlink:href="#DejaVuSans-78" transform="translate(59.773438 0)"/>
     <use xlink:href="#DejaVuSans-70" transform="translate(118.953125 0)"/>
     <use xlink:href="#DejaVuSans-6c" transform="translate(182.429688 0)"/>
     <use xlink:href="#DejaVuSans-69" transform="translate(210.212891 0)"/>
     <use xlink:href="#DejaVuSans-63" transform="translate(237.996094 0)"/>
     <use xlink:href="#DejaVuSans-69" transform="translate(292.976562 0)"/>
     <use xlink:href="#DejaVuSans-74" transform="translate(320.759766 0)"/>
     <use xlink:href="#DejaVuSans-2e" transform="translate(359.96875 0)"/>
    </g>
   </g>
  </g>
 </g>
 <defs>
  <clipPath id="pafa9fb0522">
   <rect x="7.2" y="7.2" width="446.4" height="249.48"/>
  </clipPath>
 </defs>
</svg>
