<?xml version="1.0" encoding="utf-8" standalone="no"?>
<!DOCTYPE svg PUBLIC "-//W3C//DTD SVG 1.1//EN"
  "http://www.w3.org/Graphics/SVG/1.1/DTD/svg11.dtd">
<svg xmlns:xlink="http://www.w3.org/1999/xlink" width="460.8pt" height="263.88pt" viewBox="0 0 460.8 263.88" xmlns="http://www.w3.org/2000/svg" version="1.1">
 <metadata>
  <rdf:RDF xmlns:dc="http://purl.org/dc/elements/1.1/" xmlns:cc="http://creativecommons.org/ns#" xmlns:rdf="http://www.w3.org/1999/02/22-rdf-syntax-ns#">
   <cc:Work>
    <dc:type rdf:resource="http://purl.org/dc/dcmitype/StillImage"/>
    <dc:date>2026-04-13T21:00:38.266280</dc:date>
    <dc:format>image/svg+xml</dc:format>
    <dc:creator>
     <cc:Agent>
      <dc:title>Matplotlib v3.10.8, https://matplotlib.org/</dc:title>
     </cc:Agent>
    </dc:creator>
   </cc:Work>
  </rdf:RDF>
 </metadata>
 <defs>
  <style type="text/css">*{stroke-linejoin: round; stroke-linecap: butt}</style>
 </defs>
 <g id="figure_1">
  <g id="patch_1">
   <path d="M 0 263.88 
L 460.8 263.88 
L 460.8 0 
L 0 0 
z
" style="fill: #ffffff"/>
  </g>
  <g id="axes_1">
   <g id="patch_2">
    <path d="M 45.144 95.7654 
L 94.248 95.7654 
Q 103.176 95.7654 103.176 90.7758 
L 103.176 63.333 
Q 103.176 58.3434 94.248 58.3434 
L 45.144 58.3434 
Q 36.216 58.3434 36.216 63.333 
L 36.216 90.7758 
Q 36.216 95.7654 45.144 95.7654 
z
" clip-path="url(#p8336acc7c1)" style="fill: #f6f3ea; stroke: #1f3a5f; stroke-width: 1.8; stroke-linejoin: miter"/>
   </g>
   <g id="patch_3">
    <path d="M 152.28 95.7654 
L 201.384 95.7654 
Q 210.312 95.7654 210.312 90.7758 
L 210.312 63.333 
Q 210.312 58.3434 201.384 58.3434 
L 152.28 58.3434 
Q 143.352 58.3434 143.352 63.333 
L 143.352 90.7758 
Q 143.352 95.7654 152.28 95.7654 
z
" clip-path="url(#p8336acc7c1)" style="fill: #f6f3ea; stroke: #1f3a5f; stroke-width: 1.8; stroke-linejoin: miter"/>
   </g>
   <g id="patch_4">
    <path d="M 259.416 95.7654 
L 308.52 95.7654 
Q 317.448 95.7654 317.448 90.7758 
L 317.448 63.333 
Q 317.448 58.3434 308.52 58.3434 
L 259.416 58.3434 
Q 250.488 58.3434 250.488 63.333 
L 250.488 90.7758 
Q 250.488 95.7654 259.416 95.7654 
z
" clip-path="url(#p8336acc7c1)" style="fill: #f6f3ea; stroke: #1f3a5f; stroke-width: 1.8; stroke-linejoin: miter"/>
   </g>
   <g id="patch_5">
    <path d="M 45.144 210.5262 
L 94.248 210.5262 
Q 103.176 210.5262 103.176 205.5366 
L 103.176 178.0938 
Q 103.176 173.1042 94.248 173.1042 
L 45.144 173.1042 
Q 36.216 173.1042 36.216 178.0938 
L 36.216 205.5366 
Q 36.216 210.5262 45.144 210.5262 
z
" clip-path="url(#p8336acc7c1)" style="fill: #f6f3ea; stroke: #1f3a5f; stroke-width: 1.8; stroke-linejoin: miter"/>
   </g>
   <g id="patch_6">
    <path d="M 152.28 210.5262 
L 201.384 210.5262 
Q 210.312 210.5262 210.312 205.5366 
L 210.312 178.0938 
Q 210.312 173.1042 201.384 173.1042 
L 152.28 173.1042 
Q 143.352 173.1042 143.352 178.0938 
L 143.352 205.5366 
Q 143.352 210.5262 152.28 210.5262 
z
" clip-path="url(#p8336acc7c1)" style="fill: #f6f3ea; stroke: #1f3a5f; stroke-width: 1.8; stroke-linejoin: miter"/>
   </g>
   <g id="patch_7">
    <path d="M 259.416 210.5262 
L 308.52 210.5262 
Q 317.448 210.5262 317.448 205.5366 
L 317.448 178.0938 
Q 317.448 173.1042 308.52 173.1042 
L 259.416 173.1042 
Q 250.488 173.1042 250.488 178.0938 
L 250.488 205.5366 
Q 250.488 210.5262 259.416 210.5262 
z
" clip-path="url(#p8336acc7c1)" style="fill: #f6f3ea; stroke: #1f3a5f; stroke-width: 1.8; stroke-linejoin: miter"/>
   </g>
   <g id="patch_8">
    <path d="M 87.69477 77.0544 
Q 123.26343 77.0544 156.819629 77.0544 
" clip-path="url(#p8336acc7c1)" style="fill: none; stroke: #1f3a5f; stroke-width: 1.8; stroke-linecap: round"/>
    <path d="M 151.619629 74.4544 
L 156.819629 77.0544 
L 151.619629 79.6544 
" clip-path="url(#p8336acc7c1)" style="fill: none; stroke: #1f3a5f; stroke-width: 1.8; stroke-linecap: round"/>
   </g>
   <g id="patch_9">
    <path d="M 194.83077 77.0544 
Q 230.39943 77.0544 263.955629 77.0544 
" clip-path="url(#p8336acc7c1)" style="fill: none; stroke: #1f3a5f; stroke-width: 1.8; stroke-linecap: round"/>
    <path d="M 258.755629 74.4544 
L 263.955629 77.0544 
L 258.755629 79.6544 
" clip-path="url(#p8336acc7c1)" style="fill: none; stroke: #1f3a5f; stroke-width: 1.8; stroke-linecap: round"/>
   </g>
   <g id="patch_10">
    <path d="M 86.373879 70.287308 
Q 176.829812 36.682465 265.399249 69.584873 
" clip-path="url(#p8336acc7c1)" style="fill: none; stroke: #b35c44; stroke-width: 1.8; stroke-linecap: round"/>
    <path d="M 261.430141 65.336793 
L 265.399249 69.584873 
L 259.61932 70.211311 
" clip-path="url(#p8336acc7c1)" style="fill: none; stroke: #b35c44; stroke-width: 1.8; stroke-linecap: round"/>
   </g>
   <g id="patch_11">
    <path d="M 69.696 95.052317 
Q 69.696 134.434586 69.696 171.804394 
" clip-path="url(#p8336acc7c1)" style="fill: none; stroke: #1f3a5f; stroke-width: 1.8; stroke-linecap: round"/>
    <path d="M 72.296 166.604394 
L 69.696 171.804394 
L 67.096 166.604394 
" clip-path="url(#p8336acc7c1)" style="fill: none; stroke: #1f3a5f; stroke-width: 1.8; stroke-linecap: round"/>
   </g>
   <g id="patch_12">
    <path d="M 176.832 95.052317 
Q 176.832 134.434586 176.832 171.804394 
" clip-path="url(#p8336acc7c1)" style="fill: none; stroke: #1f3a5f; stroke-width: 1.8; stroke-linecap: round"/>
    <path d="M 179.432 166.604394 
L 176.832 171.804394 
L 174.232 166.604394 
" clip-path="url(#p8336acc7c1)" style="fill: none; stroke: #1f3a5f; stroke-width: 1.8; stroke-linecap: round"/>
   </g>
   <g id="patch_13">
    <path d="M 283.968 95.052317 
Q 283.968 134.434586 283.968 171.804394 
" clip-path="url(#p8336acc7c1)" style="fill: none; stroke: #1f3a5f; stroke-width: 1.8; stroke-linecap: round"/>
    <path d="M 286.568 166.604394 
L 283.968 171.804394 
L 281.368 166.604394 
" clip-path="url(#p8336acc7c1)" style="fill: none; stroke: #1f3a5f; stroke-width: 1.8; stroke-linecap: round"/>
   </g>
   <g id="patch_14">
    <path d="M 87.69477 191.8152 
Q 123.26343 191.8152 156.819629 191.8152 
" clip-path="url(#p8336acc7c1)" style="fill: none; stroke: #1f3a5f; stroke-width: 1.8; stroke-linecap: round"/>
    <path d="M 151.619629 189.2152 
L 156.819629 191.8152 
L 151.619629 194.4152 
" clip-path="url(#p8336acc7c1)" style="fill: none; stroke: #1f3a5f; stroke-width: 1.8; stroke-linecap: round"/>
   </g>
   <g id="patch_15">
    <path d="M 194.83077 191.8152 
Q 230.39943 191.8152 263.955629 191.8152 
" clip-path="url(#p8336acc7c1)" style="fill: none; stroke: #1f3a5f; stroke-width: 1.8; stroke-linecap: round"/>
    <path d="M 258.755629 189.2152 
L 263.955629 191.8152 
L 258.755629 194.4152 
" clip-path="url(#p8336acc7c1)" style="fill: none; stroke: #1f3a5f; stroke-width: 1.8; stroke-linecap: round"/>
   </g>
   <g id="patch_16">
    <path d="M 86.373879 185.048108 
Q 176.829812 151.443265 265.399249 184.345673 
" clip-path="url(#p8336acc7c1)" style="fill: none; stroke: #b35c44; stroke-width: 1.8; stroke-linecap: round"/>
    <path d="M 261.430141 180.097593 
L 265.399249 184.345673 
L 259.61932 184.972111 
" clip-path="url(#p8336acc7c1)" style="fill: none; stroke: #b35c44; stroke-width: 1.8; stroke-linecap: round"/>
   </g>
   <g id="text_1">
    <!-- Functor Preserves Composition -->
    <g style="fill: #1f3a5f" transform="translate(16.128 28.576856) scale(0.15 -0.15)">
     <defs>
      <path id="DejaVuSans-Bold-46" d="M 588 4666 
L 3834 4666 
L 3834 3756 
L 1791 3756 
L 1791 2888 
L 3713 2888 
L 3713 1978 
L 1791 1978 
L 1791 0 
L 588 0 
L 588 4666 
z
" transform="scale(0.015625)"/>
      <path id="DejaVuSans-Bold-75" d="M 500 1363 
L 500 3500 
L 1625 3500 
L 1625 3150 
Q 1625 2866 1622 2436 
Q 1619 2006 1619 1863 
Q 1619 1441 1641 1255 
Q 1663 1069 1716 984 
Q 1784 875 1895 815 
Q 2006 756 2150 756 
Q 2500 756 2700 1025 
Q 2900 1294 2900 1772 
L 2900 3500 
L 4019 3500 
L 4019 0 
L 2900 0 
L 2900 506 
Q 2647 200 2364 54 
Q 2081 -91 1741 -91 
Q 1134 -91 817 281 
Q 500 653 500 1363 
z
" transform="scale(0.015625)"/>
      <path id="DejaVuSans-Bold-6e" d="M 4056 2131 
L 4056 0 
L 2931 0 
L 2931 347 
L 2931 1631 
Q 2931 2084 2911 2256 
Q 2891 2428 2841 2509 
Q 2775 2619 2662 2680 
Q 2550 2741 2406 2741 
Q 2056 2741 1856 2470 
Q 1656 2200 1656 1722 
L 1656 0 
L 538 0 
L 538 3500 
L 1656 3500 
L 1656 2988 
Q 1909 3294 2193 3439 
Q 2478 3584 2822 3584 
Q 3428 3584 3742 3212 
Q 4056 2841 4056 2131 
z
" transform="scale(0.015625)"/>
      <path id="DejaVuSans-Bold-63" d="M 3366 3391 
L 3366 2478 
Q 3138 2634 2908 2709 
Q 2678 2784 2431 2784 
Q 1963 2784 1702 2511 
Q 1441 2238 1441 1747 
Q 1441 1256 1702 982 
Q 1963 709 2431 709 
Q 2694 709 2930 787 
Q 3166 866 3366 1019 
L 3366 103 
Q 3103 6 2833 -42 
Q 2563 -91 2291 -91 
Q 1344 -91 809 395 
Q 275 881 275 1747 
Q 275 2613 809 3098 
Q 1344 3584 2291 3584 
Q 2566 3584 2833 3536 
Q 3100 3488 3366 3391 
z
" transform="scale(0.015625)"/>
      <path id="DejaVuSans-Bold-74" d="M 1759 4494 
L 1759 3500 
L 2913 3500 
L 2913 2700 
L 1759 2700 
L 1759 1216 
Q 1759 972 1856 886 
Q 1953 800 2241 800 
L 2816 800 
L 2816 0 
L 1856 0 
Q 1194 0 917 276 
Q 641 553 641 1216 
L 641 2700 
L 84 2700 
L 84 3500 
L 641 3500 
L 641 4494 
L 1759 4494 
z
" transform="scale(0.015625)"/>
      <path id="DejaVuSans-Bold-6f" d="M 2203 2784 
Q 1831 2784 1636 2517 
Q 1441 2250 1441 1747 
Q 1441 1244 1636 976 
Q 1831 709 2203 709 
Q 2569 709 2762 976 
Q 2956 1244 2956 1747 
Q 2956 2250 2762 2517 
Q 2569 2784 2203 2784 
z
M 2203 3584 
Q 3106 3584 3614 3096 
Q 4122 2609 4122 1747 
Q 4122 884 3614 396 
Q 3106 -91 2203 -91 
Q 1297 -91 786 396 
Q 275 884 275 1747 
Q 275 2609 786 3096 
Q 1297 3584 2203 3584 
z
" transform="scale(0.015625)"/>
      <path id="DejaVuSans-Bold-72" d="M 3138 2547 
Q 2991 2616 2845 2648 
Q 2700 2681 2553 2681 
Q 2122 2681 1889 2404 
Q 1656 2128 1656 1613 
L 1656 0 
L 538 0 
L 538 3500 
L 1656 3500 
L 1656 2925 
Q 1872 3269 2151 3426 
Q 2431 3584 2822 3584 
Q 2878 3584 2943 3579 
Q 3009 3575 3134 3559 
L 3138 2547 
z
" transform="scale(0.015625)"/>
      <path id="DejaVuSans-Bold-20" transform="scale(0.015625)"/>
      <path id="DejaVuSans-Bold-50" d="M 588 4666 
L 2584 4666 
Q 3475 4666 3951 4270 
Q 4428 3875 4428 3144 
Q 4428 2409 3951 2014 
Q 3475 1619 2584 1619 
L 1791 1619 
L 1791 0 
L 588 0 
L 588 4666 
z
M 1791 3794 
L 1791 2491 
L 2456 2491 
Q 2806 2491 2997 2661 
Q 3188 2831 3188 3144 
Q 3188 3456 2997 3625 
Q 2806 3794 2456 3794 
L 1791 3794 
z
" transform="scale(0.015625)"/>
      <path id="DejaVuSans-Bold-65" d="M 4031 1759 
L 4031 1441 
L 1416 1441 
Q 1456 1047 1700 850 
Q 1944 653 2381 653 
Q 2734 653 3104 758 
Q 3475 863 3866 1075 
L 3866 213 
Q 3469 63 3072 -14 
Q 2675 -91 2278 -91 
Q 1328 -91 801 392 
Q 275 875 275 1747 
Q 275 2603 792 3093 
Q 1309 3584 2216 3584 
Q 3041 3584 3536 3087 
Q 4031 2591 4031 1759 
z
M 2881 2131 
Q 2881 2450 2695 2645 
Q 2509 2841 2209 2841 
Q 1884 2841 1681 2658 
Q 1478 2475 1428 2131 
L 2881 2131 
z
" transform="scale(0.015625)"/>
      <path id="DejaVuSans-Bold-73" d="M 3272 3391 
L 3272 2541 
Q 2913 2691 2578 2766 
Q 2244 2841 1947 2841 
Q 1628 2841 1473 2761 
Q 1319 2681 1319 2516 
Q 1319 2381 1436 2309 
Q 1553 2238 1856 2203 
L 2053 2175 
Q 2913 2066 3209 1816 
Q 3506 1566 3506 1031 
Q 3506 472 3093 190 
Q 2681 -91 1863 -91 
Q 1516 -91 1145 -36 
Q 775 19 384 128 
L 384 978 
Q 719 816 1070 734 
Q 1422 653 1784 653 
Q 2113 653 2278 743 
Q 2444 834 2444 1013 
Q 2444 1163 2330 1236 
Q 2216 1309 1875 1350 
L 1678 1375 
Q 931 1469 631 1722 
Q 331 1975 331 2491 
Q 331 3047 712 3315 
Q 1094 3584 1881 3584 
Q 2191 3584 2531 3537 
Q 2872 3491 3272 3391 
z
" transform="scale(0.015625)"/>
      <path id="DejaVuSans-Bold-76" d="M 97 3500 
L 1216 3500 
L 2088 1081 
L 2956 3500 
L 4078 3500 
L 2700 0 
L 1472 0 
L 97 3500 
z
" transform="scale(0.015625)"/>
      <path id="DejaVuSans-Bold-43" d="M 4288 256 
Q 3956 84 3597 -3 
Q 3238 -91 2847 -91 
Q 1681 -91 1000 561 
Q 319 1213 319 2328 
Q 319 3447 1000 4098 
Q 1681 4750 2847 4750 
Q 3238 4750 3597 4662 
Q 3956 4575 4288 4403 
L 4288 3438 
Q 3953 3666 3628 3772 
Q 3303 3878 2944 3878 
Q 2300 3878 1931 3465 
Q 1563 3053 1563 2328 
Q 1563 1606 1931 1193 
Q 2300 781 2944 781 
Q 3303 781 3628 887 
Q 3953 994 4288 1222 
L 4288 256 
z
" transform="scale(0.015625)"/>
      <path id="DejaVuSans-Bold-6d" d="M 3781 2919 
Q 3994 3244 4286 3414 
Q 4578 3584 4928 3584 
Q 5531 3584 5847 3212 
Q 6163 2841 6163 2131 
L 6163 0 
L 5038 0 
L 5038 1825 
Q 5041 1866 5042 1909 
Q 5044 1953 5044 2034 
Q 5044 2406 4934 2573 
Q 4825 2741 4581 2741 
Q 4263 2741 4089 2478 
Q 3916 2216 3909 1719 
L 3909 0 
L 2784 0 
L 2784 1825 
Q 2784 2406 2684 2573 
Q 2584 2741 2328 2741 
Q 2006 2741 1831 2477 
Q 1656 2213 1656 1722 
L 1656 0 
L 531 0 
L 531 3500 
L 1656 3500 
L 1656 2988 
Q 1863 3284 2130 3434 
Q 2397 3584 2719 3584 
Q 3081 3584 3359 3409 
Q 3638 3234 3781 2919 
z
" transform="scale(0.015625)"/>
      <path id="DejaVuSans-Bold-70" d="M 1656 506 
L 1656 -1331 
L 538 -1331 
L 538 3500 
L 1656 3500 
L 1656 2988 
Q 1888 3294 2169 3439 
Q 2450 3584 2816 3584 
Q 3463 3584 3878 3070 
Q 4294 2556 4294 1747 
Q 4294 938 3878 423 
Q 3463 -91 2816 -91 
Q 2450 -91 2169 54 
Q 1888 200 1656 506 
z
M 2400 2772 
Q 2041 2772 1848 2508 
Q 1656 2244 1656 1747 
Q 1656 1250 1848 986 
Q 2041 722 2400 722 
Q 2759 722 2948 984 
Q 3138 1247 3138 1747 
Q 3138 2247 2948 2509 
Q 2759 2772 2400 2772 
z
" transform="scale(0.015625)"/>
      <path id="DejaVuSans-Bold-69" d="M 538 3500 
L 1656 3500 
L 1656 0 
L 538 0 
L 538 3500 
z
M 538 4863 
L 1656 4863 
L 1656 3950 
L 538 3950 
L 538 4863 
z
" transform="scale(0.015625)"/>
     </defs>
     <use xlink:href="#DejaVuSans-Bold-46"/>
     <use xlink:href="#DejaVuSans-Bold-75" transform="translate(63.310547 0)"/>
     <use xlink:href="#DejaVuSans-Bold-6e" transform="translate(134.501953 0)"/>
     <use xlink:href="#DejaVuSans-Bold-63" transform="translate(205.693359 0)"/>
     <use xlink:href="#DejaVuSans-Bold-74" transform="translate(264.970703 0)"/>
     <use xlink:href="#DejaVuSans-Bold-6f" transform="translate(312.773438 0)"/>
     <use xlink:href="#DejaVuSans-Bold-72" transform="translate(381.474609 0)"/>
     <use xlink:href="#DejaVuSans-Bold-20" transform="translate(430.791016 0)"/>
     <use xlink:href="#DejaVuSans-Bold-50" transform="translate(465.605469 0)"/>
     <use xlink:href="#DejaVuSans-Bold-72" transform="translate(538.896484 0)"/>
     <use xlink:href="#DejaVuSans-Bold-65" transform="translate(588.212891 0)"/>
     <use xlink:href="#DejaVuSans-Bold-73" transform="translate(656.035156 0)"/>
     <use xlink:href="#DejaVuSans-Bold-65" transform="translate(715.556641 0)"/>
     <use xlink:href="#DejaVuSans-Bold-72" transform="translate(783.378906 0)"/>
     <use xlink:href="#DejaVuSans-Bold-76" transform="translate(832.695312 0)"/>
     <use xlink:href="#DejaVuSans-Bold-65" transform="translate(897.880859 0)"/>
     <use xlink:href="#DejaVuSans-Bold-73" transform="translate(965.703125 0)"/>
     <use xlink:href="#DejaVuSans-Bold-20" transform="translate(1025.224609 0)"/>
     <use xlink:href="#DejaVuSans-Bold-43" transform="translate(1060.039062 0)"/>
     <use xlink:href="#DejaVuSans-Bold-6f" transform="translate(1133.427734 0)"/>
     <use xlink:href="#DejaVuSans-Bold-6d" transform="translate(1202.128906 0)"/>
     <use xlink:href="#DejaVuSans-Bold-70" transform="translate(1306.328125 0)"/>
     <use xlink:href="#DejaVuSans-Bold-6f" transform="translate(1377.910156 0)"/>
     <use xlink:href="#DejaVuSans-Bold-73" transform="translate(1446.611328 0)"/>
     <use xlink:href="#DejaVuSans-Bold-69" transform="translate(1506.132812 0)"/>
     <use xlink:href="#DejaVuSans-Bold-74" transform="translate(1540.410156 0)"/>
     <use xlink:href="#DejaVuSans-Bold-69" transform="translate(1588.212891 0)"/>
     <use xlink:href="#DejaVuSans-Bold-6f" transform="translate(1622.490234 0)"/>
     <use xlink:href="#DejaVuSans-Bold-6e" transform="translate(1691.191406 0)"/>
    </g>
   </g>
   <g id="text_2">
    <!-- $A$ -->
    <g transform="translate(65.211 80.641587) scale(0.13 -0.13)">
     <defs>
      <path id="DejaVuSans-Oblique-41" d="M 2356 4666 
L 3072 4666 
L 3938 0 
L 3278 0 
L 3084 1197 
L 984 1197 
L 325 0 
L -341 0 
L 2356 4666 
z
M 2584 4044 
L 1275 1722 
L 2988 1722 
L 2584 4044 
z
" transform="scale(0.015625)"/>
     </defs>
     <use xlink:href="#DejaVuSans-Oblique-41" transform="translate(0 0.09375)"/>
    </g>
   </g>
   <g id="text_3">
    <!-- $B$ -->
    <g transform="translate(172.347 80.641587) scale(0.13 -0.13)">
     <defs>
      <path id="DejaVuSans-Oblique-42" d="M 1081 4666 
L 2694 4666 
Q 3350 4666 3675 4422 
Q 4000 4178 4000 3688 
Q 4000 3238 3720 2911 
Q 3441 2584 2988 2516 
Q 3375 2428 3569 2181 
Q 3763 1934 3763 1522 
Q 3763 819 3242 409 
Q 2722 0 1819 0 
L 172 0 
L 1081 4666 
z
M 1234 2228 
L 903 519 
L 1919 519 
Q 2491 519 2800 781 
Q 3109 1044 3109 1522 
Q 3109 1891 2904 2059 
Q 2700 2228 2247 2228 
L 1234 2228 
z
M 1606 4147 
L 1331 2741 
L 2272 2741 
Q 2775 2741 3058 2959 
Q 3341 3178 3341 3566 
Q 3341 3869 3150 4008 
Q 2959 4147 2541 4147 
L 1606 4147 
z
" transform="scale(0.015625)"/>
     </defs>
     <use xlink:href="#DejaVuSans-Oblique-42" transform="translate(0 0.09375)"/>
    </g>
   </g>
   <g id="text_4">
    <!-- $C$ -->
    <g transform="translate(279.418 80.641587) scale(0.13 -0.13)">
     <defs>
      <path id="DejaVuSans-Oblique-43" d="M 4447 4306 
L 4319 3641 
Q 4019 3944 3683 4091 
Q 3347 4238 2956 4238 
Q 2422 4238 2017 3981 
Q 1613 3725 1319 3200 
Q 1131 2863 1032 2486 
Q 934 2109 934 1728 
Q 934 1091 1264 756 
Q 1594 422 2222 422 
Q 2656 422 3056 561 
Q 3456 700 3834 978 
L 3688 231 
Q 3316 72 2936 -9 
Q 2556 -91 2175 -91 
Q 1278 -91 773 396 
Q 269 884 269 1753 
Q 269 2309 461 2846 
Q 653 3384 1013 3828 
Q 1394 4300 1883 4525 
Q 2372 4750 3022 4750 
Q 3422 4750 3780 4639 
Q 4138 4528 4447 4306 
z
" transform="scale(0.015625)"/>
     </defs>
     <use xlink:href="#DejaVuSans-Oblique-43" transform="translate(0 0.78125)"/>
    </g>
   </g>
   <g id="text_5">
    <!-- $F(A)$ -->
    <g transform="translate(56.436 195.402387) scale(0.13 -0.13)">
     <defs>
      <path id="DejaVuSans-Oblique-46" d="M 1081 4666 
L 3756 4666 
L 3653 4134 
L 1606 4134 
L 1338 2759 
L 3188 2759 
L 3084 2228 
L 1234 2228 
L 800 0 
L 172 0 
L 1081 4666 
z
" transform="scale(0.015625)"/>
      <path id="DejaVuSans-28" d="M 1984 4856 
Q 1566 4138 1362 3434 
Q 1159 2731 1159 2009 
Q 1159 1288 1364 580 
Q 1569 -128 1984 -844 
L 1484 -844 
Q 1016 -109 783 600 
Q 550 1309 550 2009 
Q 550 2706 781 3412 
Q 1013 4119 1484 4856 
L 1984 4856 
z
" transform="scale(0.015625)"/>
      <path id="DejaVuSans-29" d="M 513 4856 
L 1013 4856 
Q 1481 4119 1714 3412 
Q 1947 2706 1947 2009 
Q 1947 1309 1714 600 
Q 1481 -109 1013 -844 
L 513 -844 
Q 928 -128 1133 580 
Q 1338 1288 1338 2009 
Q 1338 2731 1133 3434 
Q 928 4138 513 4856 
z
" transform="scale(0.015625)"/>
     </defs>
     <use xlink:href="#DejaVuSans-Oblique-46" transform="translate(0 0.125)"/>
     <use xlink:href="#DejaVuSans-28" transform="translate(57.519531 0.125)"/>
     <use xlink:href="#DejaVuSans-Oblique-41" transform="translate(96.533203 0.125)"/>
     <use xlink:href="#DejaVuSans-29" transform="translate(164.941406 0.125)"/>
    </g>
   </g>
   <g id="text_6">
    <!-- $F(B)$ -->
    <g transform="translate(163.507 195.402387) scale(0.13 -0.13)">
     <use xlink:href="#DejaVuSans-Oblique-46" transform="translate(0 0.125)"/>
     <use xlink:href="#DejaVuSans-28" transform="translate(57.519531 0.125)"/>
     <use xlink:href="#DejaVuSans-Oblique-42" transform="translate(96.533203 0.125)"/>
     <use xlink:href="#DejaVuSans-29" transform="translate(165.136719 0.125)"/>
    </g>
   </g>
   <g id="text_7">
    <!-- $F(C)$ -->
    <g transform="translate(270.578 195.402387) scale(0.13 -0.13)">
     <use xlink:href="#DejaVuSans-Oblique-46" transform="translate(0 0.125)"/>
     <use xlink:href="#DejaVuSans-28" transform="translate(57.519531 0.125)"/>
     <use xlink:href="#DejaVuSans-Oblique-43" transform="translate(96.533203 0.125)"/>
     <use xlink:href="#DejaVuSans-29" transform="translate(166.357422 0.125)"/>
    </g>
   </g>
   <g id="text_8">
    <!-- $f$ -->
    <g style="fill: #1f3a5f" transform="translate(121.104 67.89165) scale(0.12 -0.12)">
     <defs>
      <path id="DejaVuSans-Oblique-66" d="M 3059 4863 
L 2969 4384 
L 2419 4384 
Q 2106 4384 1964 4261 
Q 1822 4138 1753 3809 
L 1691 3500 
L 2638 3500 
L 2553 3053 
L 1606 3053 
L 1013 0 
L 434 0 
L 1031 3053 
L 481 3053 
L 563 3500 
L 1113 3500 
L 1159 3744 
Q 1278 4363 1576 4613 
Q 1875 4863 2516 4863 
L 3059 4863 
z
" transform="scale(0.015625)"/>
     </defs>
     <use xlink:href="#DejaVuSans-Oblique-66" transform="translate(0 0.015625)"/>
    </g>
   </g>
   <g id="text_9">
    <!-- $g$ -->
    <g style="fill: #1f3a5f" transform="translate(226.56 67.867275) scale(0.12 -0.12)">
     <defs>
      <path id="DejaVuSans-Oblique-67" d="M 3816 3500 
L 3219 434 
Q 3047 -456 2561 -893 
Q 2075 -1331 1253 -1331 
Q 950 -1331 690 -1286 
Q 431 -1241 206 -1147 
L 313 -588 
Q 525 -725 762 -790 
Q 1000 -856 1269 -856 
Q 1816 -856 2167 -557 
Q 2519 -259 2631 300 
L 2681 563 
Q 2441 288 2122 144 
Q 1803 0 1434 0 
Q 903 0 598 351 
Q 294 703 294 1319 
Q 294 1803 478 2267 
Q 663 2731 997 3091 
Q 1219 3328 1514 3456 
Q 1809 3584 2131 3584 
Q 2484 3584 2746 3420 
Q 3009 3256 3138 2956 
L 3238 3500 
L 3816 3500 
z
M 2950 2216 
Q 2950 2641 2750 2872 
Q 2550 3103 2181 3103 
Q 1953 3103 1747 3012 
Q 1541 2922 1394 2759 
Q 1156 2491 1023 2127 
Q 891 1763 891 1375 
Q 891 944 1092 712 
Q 1294 481 1672 481 
Q 2219 481 2584 976 
Q 2950 1472 2950 2216 
z
" transform="scale(0.015625)"/>
     </defs>
     <use xlink:href="#DejaVuSans-Oblique-67"/>
    </g>
   </g>
   <g id="text_10">
    <!-- $g \circ f$ -->
    <g style="fill: #b35c44" transform="translate(174.5928 61.294128) scale(0.12 -0.12)">
     <defs>
      <path id="DejaVuSans-2218" d="M 2000 2619 
Q 1750 2619 1578 2445 
Q 1406 2272 1406 2022 
Q 1406 1775 1578 1605 
Q 1750 1435 2000 1435 
Q 2250 1435 2422 1605 
Q 2594 1775 2594 2022 
Q 2594 2269 2420 2444 
Q 2247 2619 2000 2619 
z
M 2000 3022 
Q 2200 3022 2384 2945 
Q 2569 2869 2703 2725 
Q 2847 2585 2919 2406 
Q 2991 2228 2991 2022 
Q 2991 1610 2702 1324 
Q 2413 1038 1994 1038 
Q 1572 1038 1290 1319 
Q 1009 1600 1009 2022 
Q 1009 2441 1296 2731 
Q 1584 3022 2000 3022 
z
" transform="scale(0.015625)"/>
     </defs>
     <use xlink:href="#DejaVuSans-Oblique-67" transform="translate(0 0.015625)"/>
     <use xlink:href="#DejaVuSans-2218" transform="translate(82.958984 0.015625)"/>
     <use xlink:href="#DejaVuSans-Oblique-66" transform="translate(165.039062 0.015625)"/>
    </g>
   </g>
   <g id="text_11">
    <!-- $F$ -->
    <g style="fill: #1f3a5f" transform="translate(84.072 137.74605) scale(0.12 -0.12)">
     <use xlink:href="#DejaVuSans-Oblique-46" transform="translate(0 0.09375)"/>
    </g>
   </g>
   <g id="text_12">
    <!-- $F$ -->
    <g style="fill: #1f3a5f" transform="translate(191.208 137.74605) scale(0.12 -0.12)">
     <use xlink:href="#DejaVuSans-Oblique-46" transform="translate(0 0.09375)"/>
    </g>
   </g>
   <g id="text_13">
    <!-- $F$ -->
    <g style="fill: #1f3a5f" transform="translate(298.344 137.74605) scale(0.12 -0.12)">
     <use xlink:href="#DejaVuSans-Oblique-46" transform="translate(0 0.09375)"/>
    </g>
   </g>
   <g id="text_14">
    <!-- $F(f)$ -->
    <g style="fill: #1f3a5f" transform="translate(113.004 182.65245) scale(0.12 -0.12)">
     <use xlink:href="#DejaVuSans-Oblique-46" transform="translate(0 0.015625)"/>
     <use xlink:href="#DejaVuSans-28" transform="translate(57.519531 0.015625)"/>
     <use xlink:href="#DejaVuSans-Oblique-66" transform="translate(96.533203 0.015625)"/>
     <use xlink:href="#DejaVuSans-29" transform="translate(131.738281 0.015625)"/>
    </g>
   </g>
   <g id="text_15">
    <!-- $F(g)$ -->
    <g style="fill: #1f3a5f" transform="translate(218.4 182.6412) scale(0.12 -0.12)">
     <use xlink:href="#DejaVuSans-Oblique-46" transform="translate(0 0.125)"/>
     <use xlink:href="#DejaVuSans-28" transform="translate(57.519531 0.125)"/>
     <use xlink:href="#DejaVuSans-Oblique-67" transform="translate(96.533203 0.125)"/>
     <use xlink:href="#DejaVuSans-29" transform="translate(160.009766 0.125)"/>
    </g>
   </g>
   <g id="text_16">
    <!-- $F(g \circ f)$ -->
    <g style="fill: #b35c44" transform="translate(166.4928 176.054928) scale(0.12 -0.12)">
     <use xlink:href="#DejaVuSans-Oblique-46" transform="translate(0 0.015625)"/>
     <use xlink:href="#DejaVuSans-28" transform="translate(57.519531 0.015625)"/>
     <use xlink:href="#DejaVuSans-Oblique-67" transform="translate(96.533203 0.015625)"/>
     <use xlink:href="#DejaVuSans-2218" transform="translate(179.492188 0.015625)"/>
     <use xlink:href="#DejaVuSans-Oblique-66" transform="translate(261.572266 0.015625)"/>
     <use xlink:href="#DejaVuSans-29" transform="translate(296.777344 0.015625)"/>
    </g>
   </g>
   <g id="text_17">
    <!-- The bottom composite equals $F(g) \circ F(f)$ whenever $F$ is a functor. -->
    <g style="fill: #7a8796" transform="translate(16.128 239.4012) scale(0.11 -0.11)">
     <defs>
      <path id="DejaVuSans-54" d="M -19 4666 
L 3928 4666 
L 3928 4134 
L 2272 4134 
L 2272 0 
L 1638 0 
L 1638 4134 
L -19 4134 
L -19 4666 
z
" transform="scale(0.015625)"/>
      <path id="DejaVuSans-68" d="M 3513 2113 
L 3513 0 
L 2938 0 
L 2938 2094 
Q 2938 2591 2744 2837 
Q 2550 3084 2163 3084 
Q 1697 3084 1428 2787 
Q 1159 2491 1159 1978 
L 1159 0 
L 581 0 
L 581 4863 
L 1159 4863 
L 1159 2956 
Q 1366 3272 1645 3428 
Q 1925 3584 2291 3584 
Q 2894 3584 3203 3211 
Q 3513 2838 3513 2113 
z
" transform="scale(0.015625)"/>
      <path id="DejaVuSans-65" d="M 3597 1894 
L 3597 1613 
L 953 1613 
Q 991 1019 1311 708 
Q 1631 397 2203 397 
Q 2534 397 2845 478 
Q 3156 559 3463 722 
L 3463 178 
Q 3153 47 2828 -22 
Q 2503 -91 2169 -91 
Q 1331 -91 842 396 
Q 353 884 353 1716 
Q 353 2575 817 3079 
Q 1281 3584 2069 3584 
Q 2775 3584 3186 3129 
Q 3597 2675 3597 1894 
z
M 3022 2063 
Q 3016 2534 2758 2815 
Q 2500 3097 2075 3097 
Q 1594 3097 1305 2825 
Q 1016 2553 972 2059 
L 3022 2063 
z
" transform="scale(0.015625)"/>
      <path id="DejaVuSans-20" transform="scale(0.015625)"/>
      <path id="DejaVuSans-62" d="M 3116 1747 
Q 3116 2381 2855 2742 
Q 2594 3103 2138 3103 
Q 1681 3103 1420 2742 
Q 1159 2381 1159 1747 
Q 1159 1113 1420 752 
Q 1681 391 2138 391 
Q 2594 391 2855 752 
Q 3116 1113 3116 1747 
z
M 1159 2969 
Q 1341 3281 1617 3432 
Q 1894 3584 2278 3584 
Q 2916 3584 3314 3078 
Q 3713 2572 3713 1747 
Q 3713 922 3314 415 
Q 2916 -91 2278 -91 
Q 1894 -91 1617 61 
Q 1341 213 1159 525 
L 1159 0 
L 581 0 
L 581 4863 
L 1159 4863 
L 1159 2969 
z
" transform="scale(0.015625)"/>
      <path id="DejaVuSans-6f" d="M 1959 3097 
Q 1497 3097 1228 2736 
Q 959 2375 959 1747 
Q 959 1119 1226 758 
Q 1494 397 1959 397 
Q 2419 397 2687 759 
Q 2956 1122 2956 1747 
Q 2956 2369 2687 2733 
Q 2419 3097 1959 3097 
z
M 1959 3584 
Q 2709 3584 3137 3096 
Q 3566 2609 3566 1747 
Q 3566 888 3137 398 
Q 2709 -91 1959 -91 
Q 1206 -91 779 398 
Q 353 888 353 1747 
Q 353 2609 779 3096 
Q 1206 3584 1959 3584 
z
" transform="scale(0.015625)"/>
      <path id="DejaVuSans-74" d="M 1172 4494 
L 1172 3500 
L 2356 3500 
L 2356 3053 
L 1172 3053 
L 1172 1153 
Q 1172 725 1289 603 
Q 1406 481 1766 481 
L 2356 481 
L 2356 0 
L 1766 0 
Q 1100 0 847 248 
Q 594 497 594 1153 
L 594 3053 
L 172 3053 
L 172 3500 
L 594 3500 
L 594 4494 
L 1172 4494 
z
" transform="scale(0.015625)"/>
      <path id="DejaVuSans-6d" d="M 3328 2828 
Q 3544 3216 3844 3400 
Q 4144 3584 4550 3584 
Q 5097 3584 5394 3201 
Q 5691 2819 5691 2113 
L 5691 0 
L 5113 0 
L 5113 2094 
Q 5113 2597 4934 2840 
Q 4756 3084 4391 3084 
Q 3944 3084 3684 2787 
Q 3425 2491 3425 1978 
L 3425 0 
L 2847 0 
L 2847 2094 
Q 2847 2600 2669 2842 
Q 2491 3084 2119 3084 
Q 1678 3084 1418 2786 
Q 1159 2488 1159 1978 
L 1159 0 
L 581 0 
L 581 3500 
L 1159 3500 
L 1159 2956 
Q 1356 3278 1631 3431 
Q 1906 3584 2284 3584 
Q 2666 3584 2933 3390 
Q 3200 3197 3328 2828 
z
" transform="scale(0.015625)"/>
      <path id="DejaVuSans-63" d="M 3122 3366 
L 3122 2828 
Q 2878 2963 2633 3030 
Q 2388 3097 2138 3097 
Q 1578 3097 1268 2742 
Q 959 2388 959 1747 
Q 959 1106 1268 751 
Q 1578 397 2138 397 
Q 2388 397 2633 464 
Q 2878 531 3122 666 
L 3122 134 
Q 2881 22 2623 -34 
Q 2366 -91 2075 -91 
Q 1284 -91 818 406 
Q 353 903 353 1747 
Q 353 2603 823 3093 
Q 1294 3584 2113 3584 
Q 2378 3584 2631 3529 
Q 2884 3475 3122 3366 
z
" transform="scale(0.015625)"/>
      <path id="DejaVuSans-70" d="M 1159 525 
L 1159 -1331 
L 581 -1331 
L 581 3500 
L 1159 3500 
L 1159 2969 
Q 1341 3281 1617 3432 
Q 1894 3584 2278 3584 
Q 2916 3584 3314 3078 
Q 3713 2572 3713 1747 
Q 3713 922 3314 415 
Q 2916 -91 2278 -91 
Q 1894 -91 1617 61 
Q 1341 213 1159 525 
z
M 3116 1747 
Q 3116 2381 2855 2742 
Q 2594 3103 2138 3103 
Q 1681 3103 1420 2742 
Q 1159 2381 1159 1747 
Q 1159 1113 1420 752 
Q 1681 391 2138 391 
Q 2594 391 2855 752 
Q 3116 1113 3116 1747 
z
" transform="scale(0.015625)"/>
      <path id="DejaVuSans-73" d="M 2834 3397 
L 2834 2853 
Q 2591 2978 2328 3040 
Q 2066 3103 1784 3103 
Q 1356 3103 1142 2972 
Q 928 2841 928 2578 
Q 928 2378 1081 2264 
Q 1234 2150 1697 2047 
L 1894 2003 
Q 2506 1872 2764 1633 
Q 3022 1394 3022 966 
Q 3022 478 2636 193 
Q 2250 -91 1575 -91 
Q 1294 -91 989 -36 
Q 684 19 347 128 
L 347 722 
Q 666 556 975 473 
Q 1284 391 1588 391 
Q 1994 391 2212 530 
Q 2431 669 2431 922 
Q 2431 1156 2273 1281 
Q 2116 1406 1581 1522 
L 1381 1569 
Q 847 1681 609 1914 
Q 372 2147 372 2553 
Q 372 3047 722 3315 
Q 1072 3584 1716 3584 
Q 2034 3584 2315 3537 
Q 2597 3491 2834 3397 
z
" transform="scale(0.015625)"/>
      <path id="DejaVuSans-69" d="M 603 3500 
L 1178 3500 
L 1178 0 
L 603 0 
L 603 3500 
z
M 603 4863 
L 1178 4863 
L 1178 4134 
L 603 4134 
L 603 4863 
z
" transform="scale(0.015625)"/>
      <path id="DejaVuSans-71" d="M 947 1747 
Q 947 1113 1208 752 
Q 1469 391 1925 391 
Q 2381 391 2643 752 
Q 2906 1113 2906 1747 
Q 2906 2381 2643 2742 
Q 2381 3103 1925 3103 
Q 1469 3103 1208 2742 
Q 947 2381 947 1747 
z
M 2906 525 
Q 2725 213 2448 61 
Q 2172 -91 1784 -91 
Q 1150 -91 751 415 
Q 353 922 353 1747 
Q 353 2572 751 3078 
Q 1150 3584 1784 3584 
Q 2172 3584 2448 3432 
Q 2725 3281 2906 2969 
L 2906 3500 
L 3481 3500 
L 3481 -1331 
L 2906 -1331 
L 2906 525 
z
" transform="scale(0.015625)"/>
      <path id="DejaVuSans-75" d="M 544 1381 
L 544 3500 
L 1119 3500 
L 1119 1403 
Q 1119 906 1312 657 
Q 1506 409 1894 409 
Q 2359 409 2629 706 
Q 2900 1003 2900 1516 
L 2900 3500 
L 3475 3500 
L 3475 0 
L 2900 0 
L 2900 538 
Q 2691 219 2414 64 
Q 2138 -91 1772 -91 
Q 1169 -91 856 284 
Q 544 659 544 1381 
z
M 1991 3584 
L 1991 3584 
z
" transform="scale(0.015625)"/>
      <path id="DejaVuSans-61" d="M 2194 1759 
Q 1497 1759 1228 1600 
Q 959 1441 959 1056 
Q 959 750 1161 570 
Q 1363 391 1709 391 
Q 2188 391 2477 730 
Q 2766 1069 2766 1631 
L 2766 1759 
L 2194 1759 
z
M 3341 1997 
L 3341 0 
L 2766 0 
L 2766 531 
Q 2569 213 2275 61 
Q 1981 -91 1556 -91 
Q 1019 -91 701 211 
Q 384 513 384 1019 
Q 384 1609 779 1909 
Q 1175 2209 1959 2209 
L 2766 2209 
L 2766 2266 
Q 2766 2663 2505 2880 
Q 2244 3097 1772 3097 
Q 1472 3097 1187 3025 
Q 903 2953 641 2809 
L 641 3341 
Q 956 3463 1253 3523 
Q 1550 3584 1831 3584 
Q 2591 3584 2966 3190 
Q 3341 2797 3341 1997 
z
" transform="scale(0.015625)"/>
      <path id="DejaVuSans-6c" d="M 603 4863 
L 1178 4863 
L 1178 0 
L 603 0 
L 603 4863 
z
" transform="scale(0.015625)"/>
      <path id="DejaVuSans-77" d="M 269 3500 
L 844 3500 
L 1563 769 
L 2278 3500 
L 2956 3500 
L 3675 769 
L 4391 3500 
L 4966 3500 
L 4050 0 
L 3372 0 
L 2619 2869 
L 1863 0 
L 1184 0 
L 269 3500 
z
" transform="scale(0.015625)"/>
      <path id="DejaVuSans-6e" d="M 3513 2113 
L 3513 0 
L 2938 0 
L 2938 2094 
Q 2938 2591 2744 2837 
Q 2550 3084 2163 3084 
Q 1697 3084 1428 2787 
Q 1159 2491 1159 1978 
L 1159 0 
L 581 0 
L 581 3500 
L 1159 3500 
L 1159 2956 
Q 1366 3272 1645 3428 
Q 1925 3584 2291 3584 
Q 2894 3584 3203 3211 
Q 3513 2838 3513 2113 
z
" transform="scale(0.015625)"/>
      <path id="DejaVuSans-76" d="M 191 3500 
L 800 3500 
L 1894 563 
L 2988 3500 
L 3597 3500 
L 2284 0 
L 1503 0 
L 191 3500 
z
" transform="scale(0.015625)"/>
      <path id="DejaVuSans-72" d="M 2631 2963 
Q 2534 3019 2420 3045 
Q 2306 3072 2169 3072 
Q 1681 3072 1420 2755 
Q 1159 2438 1159 1844 
L 1159 0 
L 581 0 
L 581 3500 
L 1159 3500 
L 1159 2956 
Q 1341 3275 1631 3429 
Q 1922 3584 2338 3584 
Q 2397 3584 2469 3576 
Q 2541 3569 2628 3553 
L 2631 2963 
z
" transform="scale(0.015625)"/>
      <path id="DejaVuSans-66" d="M 2375 4863 
L 2375 4384 
L 1825 4384 
Q 1516 4384 1395 4259 
Q 1275 4134 1275 3809 
L 1275 3500 
L 2222 3500 
L 2222 3053 
L 1275 3053 
L 1275 0 
L 697 0 
L 697 3053 
L 147 3053 
L 147 3500 
L 697 3500 
L 697 3744 
Q 697 4328 969 4595 
Q 1241 4863 1831 4863 
L 2375 4863 
z
" transform="scale(0.015625)"/>
      <path id="DejaVuSans-2e" d="M 684 794 
L 1344 794 
L 1344 0 
L 684 0 
L 684 794 
z
" transform="scale(0.015625)"/>
     </defs>
     <use xlink:href="#DejaVuSans-54" transform="translate(0 0.015625)"/>
     <use xlink:href="#DejaVuSans-68" transform="translate(61.083984 0.015625)"/>
     <use xlink:href="#DejaVuSans-65" transform="translate(124.462891 0.015625)"/>
     <use xlink:href="#DejaVuSans-20" transform="translate(185.986328 0.015625)"/>
     <use xlink:href="#DejaVuSans-62" transform="translate(217.773438 0.015625)"/>
     <use xlink:href="#DejaVuSans-6f" transform="translate(281.25 0.015625)"/>
     <use xlink:href="#DejaVuSans-74" transform="translate(342.431641 0.015625)"/>
     <use xlink:href="#DejaVuSans-74" transform="translate(381.640625 0.015625)"/>
     <use xlink:href="#DejaVuSans-6f" transform="translate(420.849609 0.015625)"/>
     <use xlink:href="#DejaVuSans-6d" transform="translate(482.03125 0.015625)"/>
     <use xlink:href="#DejaVuSans-20" transform="translate(579.443359 0.015625)"/>
     <use xlink:href="#DejaVuSans-63" transform="translate(611.230469 0.015625)"/>
     <use xlink:href="#DejaVuSans-6f" transform="translate(666.210938 0.015625)"/>
     <use xlink:href="#DejaVuSans-6d" transform="translate(727.392578 0.015625)"/>
     <use xlink:href="#DejaVuSans-70" transform="translate(824.804688 0.015625)"/>
     <use xlink:href="#DejaVuSans-6f" transform="translate(888.28125 0.015625)"/>
     <use xlink:href="#DejaVuSans-73" transform="translate(949.462891 0.015625)"/>
     <use xlink:href="#DejaVuSans-69" transform="translate(1001.5625 0.015625)"/>
     <use xlink:href="#DejaVuSans-74" transform="translate(1029.345703 0.015625)"/>
     <use xlink:href="#DejaVuSans-65" transform="translate(1068.554688 0.015625)"/>
     <use xlink:href="#DejaVuSans-20" transform="translate(1130.078125 0.015625)"/>
     <use xlink:href="#DejaVuSans-65" transform="translate(1161.865234 0.015625)"/>
     <use xlink:href="#DejaVuSans-71" transform="translate(1223.388672 0.015625)"/>
     <use xlink:href="#DejaVuSans-75" transform="translate(1286.865234 0.015625)"/>
     <use xlink:href="#DejaVuSans-61" transform="translate(1350.244141 0.015625)"/>
     <use xlink:href="#DejaVuSans-6c" transform="translate(1411.523438 0.015625)"/>
     <use xlink:href="#DejaVuSans-73" transform="translate(1439.306641 0.015625)"/>
     <use xlink:href="#DejaVuSans-20" transform="translate(1491.40625 0.015625)"/>
     <use xlink:href="#DejaVuSans-Oblique-46" transform="translate(1523.193359 0.015625)"/>
     <use xlink:href="#DejaVuSans-28" transform="translate(1580.712891 0.015625)"/>
     <use xlink:href="#DejaVuSans-Oblique-67" transform="translate(1619.726562 0.015625)"/>
     <use xlink:href="#DejaVuSans-29" transform="translate(1683.203125 0.015625)"/>
     <use xlink:href="#DejaVuSans-2218" transform="translate(1741.699219 0.015625)"/>
     <use xlink:href="#DejaVuSans-Oblique-46" transform="translate(1823.779297 0.015625)"/>
     <use xlink:href="#DejaVuSans-28" transform="translate(1881.298828 0.015625)"/>
     <use xlink:href="#DejaVuSans-Oblique-66" transform="translate(1920.3125 0.015625)"/>
     <use xlink:href="#DejaVuSans-29" transform="translate(1955.517578 0.015625)"/>
     <use xlink:href="#DejaVuSans-20" transform="translate(1994.53125 0.015625)"/>
     <use xlink:href="#DejaVuSans-77" transform="translate(2026.318359 0.015625)"/>
     <use xlink:href="#DejaVuSans-68" transform="translate(2108.105469 0.015625)"/>
     <use xlink:href="#DejaVuSans-65" transform="translate(2171.484375 0.015625)"/>
     <use xlink:href="#DejaVuSans-6e" transform="translate(2233.007812 0.015625)"/>
     <use xlink:href="#DejaVuSans-65" transform="translate(2296.386719 0.015625)"/>
     <use xlink:href="#DejaVuSans-76" transform="translate(2357.910156 0.015625)"/>
     <use xlink:href="#DejaVuSans-65" transform="translate(2417.089844 0.015625)"/>
     <use xlink:href="#DejaVuSans-72" transform="translate(2478.613281 0.015625)"/>
     <use xlink:href="#DejaVuSans-20" transform="translate(2519.726562 0.015625)"/>
     <use xlink:href="#DejaVuSans-Oblique-46" transform="translate(2551.513672 0.015625)"/>
     <use xlink:href="#DejaVuSans-20" transform="translate(2609.033203 0.015625)"/>
     <use xlink:href="#DejaVuSans-69" transform="translate(2640.820312 0.015625)"/>
     <use xlink:href="#DejaVuSans-73" transform="translate(2668.603516 0.015625)"/>
     <use xlink:href="#DejaVuSans-20" transform="translate(2720.703125 0.015625)"/>
     <use xlink:href="#DejaVuSans-61" transform="translate(2752.490234 0.015625)"/>
     <use xlink:href="#DejaVuSans-20" transform="translate(2813.769531 0.015625)"/>
     <use xlink:href="#DejaVuSans-66" transform="translate(2845.556641 0.015625)"/>
     <use xlink:href="#DejaVuSans-75" transform="translate(2880.761719 0.015625)"/>
     <use xlink:href="#DejaVuSans-6e" transform="translate(2944.140625 0.015625)"/>
     <use xlink:href="#DejaVuSans-63" transform="translate(3007.519531 0.015625)"/>
     <use xlink:href="#DejaVuSans-74" transform="translate(3062.5 0.015625)"/>
     <use xlink:href="#DejaVuSans-6f" transform="translate(3101.708984 0.015625)"/>
     <use xlink:href="#DejaVuSans-72" transform="translate(3162.890625 0.015625)"/>
     <use xlink:href="#DejaVuSans-2e" transform="translate(3204.003906 0.015625)"/>
    </g>
   </g>
  </g>
 </g>
 <defs>
  <clipPath id="p8336acc7c1">
   <rect x="7.2" y="7.2" width="446.4" height="249.48"/>
  </clipPath>
 </defs>
</svg>
