<?xml version="1.0" encoding="utf-8" standalone="no"?>
<!DOCTYPE svg PUBLIC "-//W3C//DTD SVG 1.1//EN"
  "http://www.w3.org/Graphics/SVG/1.1/DTD/svg11.dtd">
<svg xmlns:xlink="http://www.w3.org/1999/xlink" width="460.8pt" height="263.88pt" viewBox="0 0 460.8 263.88" xmlns="http://www.w3.org/2000/svg" version="1.1">
 <metadata>
  <rdf:RDF xmlns:dc="http://purl.org/dc/elements/1.1/" xmlns:cc="http://creativecommons.org/ns#" xmlns:rdf="http://www.w3.org/1999/02/22-rdf-syntax-ns#">
   <cc:Work>
    <dc:type rdf:resource="http://purl.org/dc/dcmitype/StillImage"/>
    <dc:date>2026-04-15T20:37:02.243243</dc:date>
    <dc:format>image/svg+xml</dc:format>
    <dc:creator>
     <cc:Agent>
      <dc:title>Matplotlib v3.10.8, https://matplotlib.org/</dc:title>
     </cc:Agent>
    </dc:creator>
   </cc:Work>
  </rdf:RDF>
 </metadata>
 <defs>
  <style type="text/css">*{stroke-linejoin: round; stroke-linecap: butt}</style>
 </defs>
 <g id="figure_1">
  <g id="patch_1">
   <path d="M 0 263.88 
L 460.8 263.88 
L 460.8 0 
L 0 0 
z
" style="fill: #ffffff"/>
  </g>
  <g id="axes_1">
   <g id="patch_2">
    <path d="M 80.856 90.7758 
L 129.96 90.7758 
Q 138.888 90.7758 138.888 85.7862 
L 138.888 58.3434 
Q 138.888 53.3538 129.96 53.3538 
L 80.856 53.3538 
Q 71.928 53.3538 71.928 58.3434 
L 71.928 85.7862 
Q 71.928 90.7758 80.856 90.7758 
z
" clip-path="url(#p1b1a1b31ec)" style="fill: #f6f3ea; stroke: #1f3a5f; stroke-width: 1.8; stroke-linejoin: miter"/>
   </g>
   <g id="patch_3">
    <path d="M 330.84 90.7758 
L 379.944 90.7758 
Q 388.872 90.7758 388.872 85.7862 
L 388.872 58.3434 
Q 388.872 53.3538 379.944 53.3538 
L 330.84 53.3538 
Q 321.912 53.3538 321.912 58.3434 
L 321.912 85.7862 
Q 321.912 90.7758 330.84 90.7758 
z
" clip-path="url(#p1b1a1b31ec)" style="fill: #f6f3ea; stroke: #1f3a5f; stroke-width: 1.8; stroke-linejoin: miter"/>
   </g>
   <g id="patch_4">
    <path d="M 80.856 210.5262 
L 129.96 210.5262 
Q 138.888 210.5262 138.888 205.5366 
L 138.888 178.0938 
Q 138.888 173.1042 129.96 173.1042 
L 80.856 173.1042 
Q 71.928 173.1042 71.928 178.0938 
L 71.928 205.5366 
Q 71.928 210.5262 80.856 210.5262 
z
" clip-path="url(#p1b1a1b31ec)" style="fill: #f6f3ea; stroke: #1f3a5f; stroke-width: 1.8; stroke-linejoin: miter"/>
   </g>
   <g id="patch_5">
    <path d="M 330.84 210.5262 
L 379.944 210.5262 
Q 388.872 210.5262 388.872 205.5366 
L 388.872 178.0938 
Q 388.872 173.1042 379.944 173.1042 
L 330.84 173.1042 
Q 321.912 173.1042 321.912 178.0938 
L 321.912 205.5366 
Q 321.912 210.5262 330.84 210.5262 
z
" clip-path="url(#p1b1a1b31ec)" style="fill: #f6f3ea; stroke: #1f3a5f; stroke-width: 1.8; stroke-linejoin: miter"/>
   </g>
   <g id="patch_6">
    <path d="M 123.408404 72.0648 
Q 230.400289 72.0648 335.379713 72.0648 
" clip-path="url(#p1b1a1b31ec)" style="fill: none; stroke: #1f3a5f; stroke-width: 1.8; stroke-linecap: round"/>
    <path d="M 330.179713 69.4648 
L 335.379713 72.0648 
L 330.179713 74.6648 
" clip-path="url(#p1b1a1b31ec)" style="fill: none; stroke: #1f3a5f; stroke-width: 1.8; stroke-linecap: round"/>
   </g>
   <g id="patch_7">
    <path d="M 123.408404 191.8152 
Q 230.400289 191.8152 335.379713 191.8152 
" clip-path="url(#p1b1a1b31ec)" style="fill: none; stroke: #1f3a5f; stroke-width: 1.8; stroke-linecap: round"/>
    <path d="M 330.179713 189.2152 
L 335.379713 191.8152 
L 330.179713 194.4152 
" clip-path="url(#p1b1a1b31ec)" style="fill: none; stroke: #1f3a5f; stroke-width: 1.8; stroke-linecap: round"/>
   </g>
   <g id="patch_8">
    <path d="M 105.408 90.063174 
Q 105.408 131.938691 105.408 171.801747 
" clip-path="url(#p1b1a1b31ec)" style="fill: none; stroke: #1f3a5f; stroke-width: 1.8; stroke-linecap: round"/>
    <path d="M 108.008 166.601747 
L 105.408 171.801747 
L 102.808 166.601747 
" clip-path="url(#p1b1a1b31ec)" style="fill: none; stroke: #1f3a5f; stroke-width: 1.8; stroke-linecap: round"/>
   </g>
   <g id="patch_9">
    <path d="M 355.392 90.063174 
Q 355.392 131.938691 355.392 171.801747 
" clip-path="url(#p1b1a1b31ec)" style="fill: none; stroke: #1f3a5f; stroke-width: 1.8; stroke-linecap: round"/>
    <path d="M 357.992 166.601747 
L 355.392 171.801747 
L 352.792 166.601747 
" clip-path="url(#p1b1a1b31ec)" style="fill: none; stroke: #1f3a5f; stroke-width: 1.8; stroke-linecap: round"/>
   </g>
   <g id="text_1">
    <!-- Naturality Square -->
    <g style="fill: #1f3a5f" transform="translate(16.128 28.576856) scale(0.15 -0.15)">
     <defs>
      <path id="DejaVuSans-Bold-4e" d="M 588 4666 
L 1931 4666 
L 3628 1466 
L 3628 4666 
L 4769 4666 
L 4769 0 
L 3425 0 
L 1728 3200 
L 1728 0 
L 588 0 
L 588 4666 
z
" transform="scale(0.015625)"/>
      <path id="DejaVuSans-Bold-61" d="M 2106 1575 
Q 1756 1575 1579 1456 
Q 1403 1338 1403 1106 
Q 1403 894 1545 773 
Q 1688 653 1941 653 
Q 2256 653 2472 879 
Q 2688 1106 2688 1447 
L 2688 1575 
L 2106 1575 
z
M 3816 1997 
L 3816 0 
L 2688 0 
L 2688 519 
Q 2463 200 2181 54 
Q 1900 -91 1497 -91 
Q 953 -91 614 226 
Q 275 544 275 1050 
Q 275 1666 698 1953 
Q 1122 2241 2028 2241 
L 2688 2241 
L 2688 2328 
Q 2688 2594 2478 2717 
Q 2269 2841 1825 2841 
Q 1466 2841 1156 2769 
Q 847 2697 581 2553 
L 581 3406 
Q 941 3494 1303 3539 
Q 1666 3584 2028 3584 
Q 2975 3584 3395 3211 
Q 3816 2838 3816 1997 
z
" transform="scale(0.015625)"/>
      <path id="DejaVuSans-Bold-74" d="M 1759 4494 
L 1759 3500 
L 2913 3500 
L 2913 2700 
L 1759 2700 
L 1759 1216 
Q 1759 972 1856 886 
Q 1953 800 2241 800 
L 2816 800 
L 2816 0 
L 1856 0 
Q 1194 0 917 276 
Q 641 553 641 1216 
L 641 2700 
L 84 2700 
L 84 3500 
L 641 3500 
L 641 4494 
L 1759 4494 
z
" transform="scale(0.015625)"/>
      <path id="DejaVuSans-Bold-75" d="M 500 1363 
L 500 3500 
L 1625 3500 
L 1625 3150 
Q 1625 2866 1622 2436 
Q 1619 2006 1619 1863 
Q 1619 1441 1641 1255 
Q 1663 1069 1716 984 
Q 1784 875 1895 815 
Q 2006 756 2150 756 
Q 2500 756 2700 1025 
Q 2900 1294 2900 1772 
L 2900 3500 
L 4019 3500 
L 4019 0 
L 2900 0 
L 2900 506 
Q 2647 200 2364 54 
Q 2081 -91 1741 -91 
Q 1134 -91 817 281 
Q 500 653 500 1363 
z
" transform="scale(0.015625)"/>
      <path id="DejaVuSans-Bold-72" d="M 3138 2547 
Q 2991 2616 2845 2648 
Q 2700 2681 2553 2681 
Q 2122 2681 1889 2404 
Q 1656 2128 1656 1613 
L 1656 0 
L 538 0 
L 538 3500 
L 1656 3500 
L 1656 2925 
Q 1872 3269 2151 3426 
Q 2431 3584 2822 3584 
Q 2878 3584 2943 3579 
Q 3009 3575 3134 3559 
L 3138 2547 
z
" transform="scale(0.015625)"/>
      <path id="DejaVuSans-Bold-6c" d="M 538 4863 
L 1656 4863 
L 1656 0 
L 538 0 
L 538 4863 
z
" transform="scale(0.015625)"/>
      <path id="DejaVuSans-Bold-69" d="M 538 3500 
L 1656 3500 
L 1656 0 
L 538 0 
L 538 3500 
z
M 538 4863 
L 1656 4863 
L 1656 3950 
L 538 3950 
L 538 4863 
z
" transform="scale(0.015625)"/>
      <path id="DejaVuSans-Bold-79" d="M 78 3500 
L 1197 3500 
L 2138 1125 
L 2938 3500 
L 4056 3500 
L 2584 -331 
Q 2363 -916 2067 -1148 
Q 1772 -1381 1288 -1381 
L 641 -1381 
L 641 -647 
L 991 -647 
Q 1275 -647 1404 -556 
Q 1534 -466 1606 -231 
L 1638 -134 
L 78 3500 
z
" transform="scale(0.015625)"/>
      <path id="DejaVuSans-Bold-20" transform="scale(0.015625)"/>
      <path id="DejaVuSans-Bold-53" d="M 3834 4519 
L 3834 3531 
Q 3450 3703 3084 3790 
Q 2719 3878 2394 3878 
Q 1963 3878 1756 3759 
Q 1550 3641 1550 3391 
Q 1550 3203 1689 3098 
Q 1828 2994 2194 2919 
L 2706 2816 
Q 3484 2659 3812 2340 
Q 4141 2022 4141 1434 
Q 4141 663 3683 286 
Q 3225 -91 2284 -91 
Q 1841 -91 1394 -6 
Q 947 78 500 244 
L 500 1259 
Q 947 1022 1364 901 
Q 1781 781 2169 781 
Q 2563 781 2772 912 
Q 2981 1044 2981 1288 
Q 2981 1506 2839 1625 
Q 2697 1744 2272 1838 
L 1806 1941 
Q 1106 2091 782 2419 
Q 459 2747 459 3303 
Q 459 4000 909 4375 
Q 1359 4750 2203 4750 
Q 2588 4750 2994 4692 
Q 3400 4634 3834 4519 
z
" transform="scale(0.015625)"/>
      <path id="DejaVuSans-Bold-71" d="M 2181 2772 
Q 1825 2772 1636 2509 
Q 1447 2247 1447 1747 
Q 1447 1247 1636 984 
Q 1825 722 2181 722 
Q 2541 722 2730 984 
Q 2919 1247 2919 1747 
Q 2919 2247 2730 2509 
Q 2541 2772 2181 2772 
z
M 2919 506 
Q 2688 197 2409 53 
Q 2131 -91 1766 -91 
Q 1119 -91 703 423 
Q 288 938 288 1747 
Q 288 2556 703 3067 
Q 1119 3578 1766 3578 
Q 2131 3578 2409 3434 
Q 2688 3291 2919 2981 
L 2919 3500 
L 4044 3500 
L 4044 -1331 
L 2919 -1331 
L 2919 506 
z
" transform="scale(0.015625)"/>
      <path id="DejaVuSans-Bold-65" d="M 4031 1759 
L 4031 1441 
L 1416 1441 
Q 1456 1047 1700 850 
Q 1944 653 2381 653 
Q 2734 653 3104 758 
Q 3475 863 3866 1075 
L 3866 213 
Q 3469 63 3072 -14 
Q 2675 -91 2278 -91 
Q 1328 -91 801 392 
Q 275 875 275 1747 
Q 275 2603 792 3093 
Q 1309 3584 2216 3584 
Q 3041 3584 3536 3087 
Q 4031 2591 4031 1759 
z
M 2881 2131 
Q 2881 2450 2695 2645 
Q 2509 2841 2209 2841 
Q 1884 2841 1681 2658 
Q 1478 2475 1428 2131 
L 2881 2131 
z
" transform="scale(0.015625)"/>
     </defs>
     <use xlink:href="#DejaVuSans-Bold-4e"/>
     <use xlink:href="#DejaVuSans-Bold-61" transform="translate(83.691406 0)"/>
     <use xlink:href="#DejaVuSans-Bold-74" transform="translate(151.171875 0)"/>
     <use xlink:href="#DejaVuSans-Bold-75" transform="translate(198.974609 0)"/>
     <use xlink:href="#DejaVuSans-Bold-72" transform="translate(270.166016 0)"/>
     <use xlink:href="#DejaVuSans-Bold-61" transform="translate(319.482422 0)"/>
     <use xlink:href="#DejaVuSans-Bold-6c" transform="translate(386.962891 0)"/>
     <use xlink:href="#DejaVuSans-Bold-69" transform="translate(421.240234 0)"/>
     <use xlink:href="#DejaVuSans-Bold-74" transform="translate(455.517578 0)"/>
     <use xlink:href="#DejaVuSans-Bold-79" transform="translate(503.320312 0)"/>
     <use xlink:href="#DejaVuSans-Bold-20" transform="translate(568.505859 0)"/>
     <use xlink:href="#DejaVuSans-Bold-53" transform="translate(603.320312 0)"/>
     <use xlink:href="#DejaVuSans-Bold-71" transform="translate(675.341797 0)"/>
     <use xlink:href="#DejaVuSans-Bold-75" transform="translate(746.923828 0)"/>
     <use xlink:href="#DejaVuSans-Bold-61" transform="translate(818.115234 0)"/>
     <use xlink:href="#DejaVuSans-Bold-72" transform="translate(885.595703 0)"/>
     <use xlink:href="#DejaVuSans-Bold-65" transform="translate(934.912109 0)"/>
    </g>
   </g>
   <g id="text_2">
    <!-- $F(A)$ -->
    <g transform="translate(92.148 75.651987) scale(0.13 -0.13)">
     <defs>
      <path id="DejaVuSans-Oblique-46" d="M 1081 4666 
L 3756 4666 
L 3653 4134 
L 1606 4134 
L 1338 2759 
L 3188 2759 
L 3084 2228 
L 1234 2228 
L 800 0 
L 172 0 
L 1081 4666 
z
" transform="scale(0.015625)"/>
      <path id="DejaVuSans-28" d="M 1984 4856 
Q 1566 4138 1362 3434 
Q 1159 2731 1159 2009 
Q 1159 1288 1364 580 
Q 1569 -128 1984 -844 
L 1484 -844 
Q 1016 -109 783 600 
Q 550 1309 550 2009 
Q 550 2706 781 3412 
Q 1013 4119 1484 4856 
L 1984 4856 
z
" transform="scale(0.015625)"/>
      <path id="DejaVuSans-Oblique-41" d="M 2356 4666 
L 3072 4666 
L 3938 0 
L 3278 0 
L 3084 1197 
L 984 1197 
L 325 0 
L -341 0 
L 2356 4666 
z
M 2584 4044 
L 1275 1722 
L 2988 1722 
L 2584 4044 
z
" transform="scale(0.015625)"/>
      <path id="DejaVuSans-29" d="M 513 4856 
L 1013 4856 
Q 1481 4119 1714 3412 
Q 1947 2706 1947 2009 
Q 1947 1309 1714 600 
Q 1481 -109 1013 -844 
L 513 -844 
Q 928 -128 1133 580 
Q 1338 1288 1338 2009 
Q 1338 2731 1133 3434 
Q 928 4138 513 4856 
z
" transform="scale(0.015625)"/>
     </defs>
     <use xlink:href="#DejaVuSans-Oblique-46" transform="translate(0 0.125)"/>
     <use xlink:href="#DejaVuSans-28" transform="translate(57.519531 0.125)"/>
     <use xlink:href="#DejaVuSans-Oblique-41" transform="translate(96.533203 0.125)"/>
     <use xlink:href="#DejaVuSans-29" transform="translate(164.941406 0.125)"/>
    </g>
   </g>
   <g id="text_3">
    <!-- $F(B)$ -->
    <g transform="translate(342.067 75.651987) scale(0.13 -0.13)">
     <defs>
      <path id="DejaVuSans-Oblique-42" d="M 1081 4666 
L 2694 4666 
Q 3350 4666 3675 4422 
Q 4000 4178 4000 3688 
Q 4000 3238 3720 2911 
Q 3441 2584 2988 2516 
Q 3375 2428 3569 2181 
Q 3763 1934 3763 1522 
Q 3763 819 3242 409 
Q 2722 0 1819 0 
L 172 0 
L 1081 4666 
z
M 1234 2228 
L 903 519 
L 1919 519 
Q 2491 519 2800 781 
Q 3109 1044 3109 1522 
Q 3109 1891 2904 2059 
Q 2700 2228 2247 2228 
L 1234 2228 
z
M 1606 4147 
L 1331 2741 
L 2272 2741 
Q 2775 2741 3058 2959 
Q 3341 3178 3341 3566 
Q 3341 3869 3150 4008 
Q 2959 4147 2541 4147 
L 1606 4147 
z
" transform="scale(0.015625)"/>
     </defs>
     <use xlink:href="#DejaVuSans-Oblique-46" transform="translate(0 0.125)"/>
     <use xlink:href="#DejaVuSans-28" transform="translate(57.519531 0.125)"/>
     <use xlink:href="#DejaVuSans-Oblique-42" transform="translate(96.533203 0.125)"/>
     <use xlink:href="#DejaVuSans-29" transform="translate(165.136719 0.125)"/>
    </g>
   </g>
   <g id="text_4">
    <!-- $G(A)$ -->
    <g transform="translate(90.848 195.402387) scale(0.13 -0.13)">
     <defs>
      <path id="DejaVuSans-Oblique-47" d="M 3494 697 
L 3738 1919 
L 2700 1919 
L 2797 2438 
L 4453 2438 
L 4050 384 
Q 3634 156 3143 32 
Q 2653 -91 2156 -91 
Q 1278 -91 783 396 
Q 288 884 288 1753 
Q 288 2475 589 3126 
Q 891 3778 1422 4213 
Q 1756 4484 2153 4617 
Q 2550 4750 3034 4750 
Q 3472 4750 3873 4639 
Q 4275 4528 4641 4306 
L 4513 3634 
Q 4231 3928 3853 4083 
Q 3475 4238 3047 4238 
Q 2550 4238 2172 4048 
Q 1794 3859 1497 3463 
Q 1244 3125 1098 2667 
Q 953 2209 953 1734 
Q 953 1081 1287 751 
Q 1622 422 2284 422 
Q 2616 422 2925 492 
Q 3234 563 3494 697 
z
" transform="scale(0.015625)"/>
     </defs>
     <use xlink:href="#DejaVuSans-Oblique-47" transform="translate(0 0.125)"/>
     <use xlink:href="#DejaVuSans-28" transform="translate(77.490234 0.125)"/>
     <use xlink:href="#DejaVuSans-Oblique-41" transform="translate(116.503906 0.125)"/>
     <use xlink:href="#DejaVuSans-29" transform="translate(184.912109 0.125)"/>
    </g>
   </g>
   <g id="text_5">
    <!-- $G(B)$ -->
    <g transform="translate(340.767 195.402387) scale(0.13 -0.13)">
     <use xlink:href="#DejaVuSans-Oblique-47" transform="translate(0 0.125)"/>
     <use xlink:href="#DejaVuSans-28" transform="translate(77.490234 0.125)"/>
     <use xlink:href="#DejaVuSans-Oblique-42" transform="translate(116.503906 0.125)"/>
     <use xlink:href="#DejaVuSans-29" transform="translate(185.107422 0.125)"/>
    </g>
   </g>
   <g id="text_6">
    <!-- $F(f)$ -->
    <g style="fill: #1f3a5f" transform="translate(220.14 62.90205) scale(0.12 -0.12)">
     <defs>
      <path id="DejaVuSans-Oblique-66" d="M 3059 4863 
L 2969 4384 
L 2419 4384 
Q 2106 4384 1964 4261 
Q 1822 4138 1753 3809 
L 1691 3500 
L 2638 3500 
L 2553 3053 
L 1606 3053 
L 1013 0 
L 434 0 
L 1031 3053 
L 481 3053 
L 563 3500 
L 1113 3500 
L 1159 3744 
Q 1278 4363 1576 4613 
Q 1875 4863 2516 4863 
L 3059 4863 
z
" transform="scale(0.015625)"/>
     </defs>
     <use xlink:href="#DejaVuSans-Oblique-46" transform="translate(0 0.015625)"/>
     <use xlink:href="#DejaVuSans-28" transform="translate(57.519531 0.015625)"/>
     <use xlink:href="#DejaVuSans-Oblique-66" transform="translate(96.533203 0.015625)"/>
     <use xlink:href="#DejaVuSans-29" transform="translate(131.738281 0.015625)"/>
    </g>
   </g>
   <g id="text_7">
    <!-- $G(f)$ -->
    <g style="fill: #1f3a5f" transform="translate(218.94 182.65245) scale(0.12 -0.12)">
     <use xlink:href="#DejaVuSans-Oblique-47" transform="translate(0 0.015625)"/>
     <use xlink:href="#DejaVuSans-28" transform="translate(77.490234 0.015625)"/>
     <use xlink:href="#DejaVuSans-Oblique-66" transform="translate(116.503906 0.015625)"/>
     <use xlink:href="#DejaVuSans-29" transform="translate(151.708984 0.015625)"/>
    </g>
   </g>
   <g id="text_8">
    <!-- $\eta_A$ -->
    <g style="fill: #1f3a5f" transform="translate(116.424 135.226875) scale(0.12 -0.12)">
     <defs>
      <path id="DejaVuSans-Oblique-3b7" d="M 3703 2113 
L 3034 -1331 
L 2459 -1331 
L 3125 2094 
Q 3222 2591 3075 2838 
Q 2931 3084 2544 3084 
Q 2078 3084 1750 2788 
Q 1425 2491 1325 1978 
L 941 0 
L 363 0 
L 1044 3500 
L 1622 3500 
L 1516 2956 
Q 1781 3272 2094 3428 
Q 2403 3584 2769 3584 
Q 3372 3584 3609 3213 
Q 3844 2838 3703 2113 
z
" transform="scale(0.015625)"/>
     </defs>
     <use xlink:href="#DejaVuSans-Oblique-3b7"/>
     <use xlink:href="#DejaVuSans-Oblique-41" transform="translate(63.378906 -16.40625) scale(0.7)"/>
    </g>
   </g>
   <g id="text_9">
    <!-- $\eta_B$ -->
    <g style="fill: #1f3a5f" transform="translate(366.348 135.226875) scale(0.12 -0.12)">
     <use xlink:href="#DejaVuSans-Oblique-3b7"/>
     <use xlink:href="#DejaVuSans-Oblique-42" transform="translate(63.378906 -16.40625) scale(0.7)"/>
    </g>
   </g>
   <g id="text_10">
    <!-- The square commutes when $\eta_B \circ F(f) = G(f) \circ \eta_A$. -->
    <g style="fill: #7a8796" transform="translate(16.128 239.4012) scale(0.11 -0.11)">
     <defs>
      <path id="DejaVuSans-54" d="M -19 4666 
L 3928 4666 
L 3928 4134 
L 2272 4134 
L 2272 0 
L 1638 0 
L 1638 4134 
L -19 4134 
L -19 4666 
z
" transform="scale(0.015625)"/>
      <path id="DejaVuSans-68" d="M 3513 2113 
L 3513 0 
L 2938 0 
L 2938 2094 
Q 2938 2591 2744 2837 
Q 2550 3084 2163 3084 
Q 1697 3084 1428 2787 
Q 1159 2491 1159 1978 
L 1159 0 
L 581 0 
L 581 4863 
L 1159 4863 
L 1159 2956 
Q 1366 3272 1645 3428 
Q 1925 3584 2291 3584 
Q 2894 3584 3203 3211 
Q 3513 2838 3513 2113 
z
" transform="scale(0.015625)"/>
      <path id="DejaVuSans-65" d="M 3597 1894 
L 3597 1613 
L 953 1613 
Q 991 1019 1311 708 
Q 1631 397 2203 397 
Q 2534 397 2845 478 
Q 3156 559 3463 722 
L 3463 178 
Q 3153 47 2828 -22 
Q 2503 -91 2169 -91 
Q 1331 -91 842 396 
Q 353 884 353 1716 
Q 353 2575 817 3079 
Q 1281 3584 2069 3584 
Q 2775 3584 3186 3129 
Q 3597 2675 3597 1894 
z
M 3022 2063 
Q 3016 2534 2758 2815 
Q 2500 3097 2075 3097 
Q 1594 3097 1305 2825 
Q 1016 2553 972 2059 
L 3022 2063 
z
" transform="scale(0.015625)"/>
      <path id="DejaVuSans-20" transform="scale(0.015625)"/>
      <path id="DejaVuSans-73" d="M 2834 3397 
L 2834 2853 
Q 2591 2978 2328 3040 
Q 2066 3103 1784 3103 
Q 1356 3103 1142 2972 
Q 928 2841 928 2578 
Q 928 2378 1081 2264 
Q 1234 2150 1697 2047 
L 1894 2003 
Q 2506 1872 2764 1633 
Q 3022 1394 3022 966 
Q 3022 478 2636 193 
Q 2250 -91 1575 -91 
Q 1294 -91 989 -36 
Q 684 19 347 128 
L 347 722 
Q 666 556 975 473 
Q 1284 391 1588 391 
Q 1994 391 2212 530 
Q 2431 669 2431 922 
Q 2431 1156 2273 1281 
Q 2116 1406 1581 1522 
L 1381 1569 
Q 847 1681 609 1914 
Q 372 2147 372 2553 
Q 372 3047 722 3315 
Q 1072 3584 1716 3584 
Q 2034 3584 2315 3537 
Q 2597 3491 2834 3397 
z
" transform="scale(0.015625)"/>
      <path id="DejaVuSans-71" d="M 947 1747 
Q 947 1113 1208 752 
Q 1469 391 1925 391 
Q 2381 391 2643 752 
Q 2906 1113 2906 1747 
Q 2906 2381 2643 2742 
Q 2381 3103 1925 3103 
Q 1469 3103 1208 2742 
Q 947 2381 947 1747 
z
M 2906 525 
Q 2725 213 2448 61 
Q 2172 -91 1784 -91 
Q 1150 -91 751 415 
Q 353 922 353 1747 
Q 353 2572 751 3078 
Q 1150 3584 1784 3584 
Q 2172 3584 2448 3432 
Q 2725 3281 2906 2969 
L 2906 3500 
L 3481 3500 
L 3481 -1331 
L 2906 -1331 
L 2906 525 
z
" transform="scale(0.015625)"/>
      <path id="DejaVuSans-75" d="M 544 1381 
L 544 3500 
L 1119 3500 
L 1119 1403 
Q 1119 906 1312 657 
Q 1506 409 1894 409 
Q 2359 409 2629 706 
Q 2900 1003 2900 1516 
L 2900 3500 
L 3475 3500 
L 3475 0 
L 2900 0 
L 2900 538 
Q 2691 219 2414 64 
Q 2138 -91 1772 -91 
Q 1169 -91 856 284 
Q 544 659 544 1381 
z
M 1991 3584 
L 1991 3584 
z
" transform="scale(0.015625)"/>
      <path id="DejaVuSans-61" d="M 2194 1759 
Q 1497 1759 1228 1600 
Q 959 1441 959 1056 
Q 959 750 1161 570 
Q 1363 391 1709 391 
Q 2188 391 2477 730 
Q 2766 1069 2766 1631 
L 2766 1759 
L 2194 1759 
z
M 3341 1997 
L 3341 0 
L 2766 0 
L 2766 531 
Q 2569 213 2275 61 
Q 1981 -91 1556 -91 
Q 1019 -91 701 211 
Q 384 513 384 1019 
Q 384 1609 779 1909 
Q 1175 2209 1959 2209 
L 2766 2209 
L 2766 2266 
Q 2766 2663 2505 2880 
Q 2244 3097 1772 3097 
Q 1472 3097 1187 3025 
Q 903 2953 641 2809 
L 641 3341 
Q 956 3463 1253 3523 
Q 1550 3584 1831 3584 
Q 2591 3584 2966 3190 
Q 3341 2797 3341 1997 
z
" transform="scale(0.015625)"/>
      <path id="DejaVuSans-72" d="M 2631 2963 
Q 2534 3019 2420 3045 
Q 2306 3072 2169 3072 
Q 1681 3072 1420 2755 
Q 1159 2438 1159 1844 
L 1159 0 
L 581 0 
L 581 3500 
L 1159 3500 
L 1159 2956 
Q 1341 3275 1631 3429 
Q 1922 3584 2338 3584 
Q 2397 3584 2469 3576 
Q 2541 3569 2628 3553 
L 2631 2963 
z
" transform="scale(0.015625)"/>
      <path id="DejaVuSans-63" d="M 3122 3366 
L 3122 2828 
Q 2878 2963 2633 3030 
Q 2388 3097 2138 3097 
Q 1578 3097 1268 2742 
Q 959 2388 959 1747 
Q 959 1106 1268 751 
Q 1578 397 2138 397 
Q 2388 397 2633 464 
Q 2878 531 3122 666 
L 3122 134 
Q 2881 22 2623 -34 
Q 2366 -91 2075 -91 
Q 1284 -91 818 406 
Q 353 903 353 1747 
Q 353 2603 823 3093 
Q 1294 3584 2113 3584 
Q 2378 3584 2631 3529 
Q 2884 3475 3122 3366 
z
" transform="scale(0.015625)"/>
      <path id="DejaVuSans-6f" d="M 1959 3097 
Q 1497 3097 1228 2736 
Q 959 2375 959 1747 
Q 959 1119 1226 758 
Q 1494 397 1959 397 
Q 2419 397 2687 759 
Q 2956 1122 2956 1747 
Q 2956 2369 2687 2733 
Q 2419 3097 1959 3097 
z
M 1959 3584 
Q 2709 3584 3137 3096 
Q 3566 2609 3566 1747 
Q 3566 888 3137 398 
Q 2709 -91 1959 -91 
Q 1206 -91 779 398 
Q 353 888 353 1747 
Q 353 2609 779 3096 
Q 1206 3584 1959 3584 
z
" transform="scale(0.015625)"/>
      <path id="DejaVuSans-6d" d="M 3328 2828 
Q 3544 3216 3844 3400 
Q 4144 3584 4550 3584 
Q 5097 3584 5394 3201 
Q 5691 2819 5691 2113 
L 5691 0 
L 5113 0 
L 5113 2094 
Q 5113 2597 4934 2840 
Q 4756 3084 4391 3084 
Q 3944 3084 3684 2787 
Q 3425 2491 3425 1978 
L 3425 0 
L 2847 0 
L 2847 2094 
Q 2847 2600 2669 2842 
Q 2491 3084 2119 3084 
Q 1678 3084 1418 2786 
Q 1159 2488 1159 1978 
L 1159 0 
L 581 0 
L 581 3500 
L 1159 3500 
L 1159 2956 
Q 1356 3278 1631 3431 
Q 1906 3584 2284 3584 
Q 2666 3584 2933 3390 
Q 3200 3197 3328 2828 
z
" transform="scale(0.015625)"/>
      <path id="DejaVuSans-74" d="M 1172 4494 
L 1172 3500 
L 2356 3500 
L 2356 3053 
L 1172 3053 
L 1172 1153 
Q 1172 725 1289 603 
Q 1406 481 1766 481 
L 2356 481 
L 2356 0 
L 1766 0 
Q 1100 0 847 248 
Q 594 497 594 1153 
L 594 3053 
L 172 3053 
L 172 3500 
L 594 3500 
L 594 4494 
L 1172 4494 
z
" transform="scale(0.015625)"/>
      <path id="DejaVuSans-77" d="M 269 3500 
L 844 3500 
L 1563 769 
L 2278 3500 
L 2956 3500 
L 3675 769 
L 4391 3500 
L 4966 3500 
L 4050 0 
L 3372 0 
L 2619 2869 
L 1863 0 
L 1184 0 
L 269 3500 
z
" transform="scale(0.015625)"/>
      <path id="DejaVuSans-6e" d="M 3513 2113 
L 3513 0 
L 2938 0 
L 2938 2094 
Q 2938 2591 2744 2837 
Q 2550 3084 2163 3084 
Q 1697 3084 1428 2787 
Q 1159 2491 1159 1978 
L 1159 0 
L 581 0 
L 581 3500 
L 1159 3500 
L 1159 2956 
Q 1366 3272 1645 3428 
Q 1925 3584 2291 3584 
Q 2894 3584 3203 3211 
Q 3513 2838 3513 2113 
z
" transform="scale(0.015625)"/>
      <path id="DejaVuSans-2218" d="M 2000 2619 
Q 1750 2619 1578 2445 
Q 1406 2272 1406 2022 
Q 1406 1775 1578 1605 
Q 1750 1435 2000 1435 
Q 2250 1435 2422 1605 
Q 2594 1775 2594 2022 
Q 2594 2269 2420 2444 
Q 2247 2619 2000 2619 
z
M 2000 3022 
Q 2200 3022 2384 2945 
Q 2569 2869 2703 2725 
Q 2847 2585 2919 2406 
Q 2991 2228 2991 2022 
Q 2991 1610 2702 1324 
Q 2413 1038 1994 1038 
Q 1572 1038 1290 1319 
Q 1009 1600 1009 2022 
Q 1009 2441 1296 2731 
Q 1584 3022 2000 3022 
z
" transform="scale(0.015625)"/>
      <path id="DejaVuSans-3d" d="M 678 2906 
L 4684 2906 
L 4684 2381 
L 678 2381 
L 678 2906 
z
M 678 1631 
L 4684 1631 
L 4684 1100 
L 678 1100 
L 678 1631 
z
" transform="scale(0.015625)"/>
      <path id="DejaVuSans-2e" d="M 684 794 
L 1344 794 
L 1344 0 
L 684 0 
L 684 794 
z
" transform="scale(0.015625)"/>
     </defs>
     <use xlink:href="#DejaVuSans-54" transform="translate(0 0.015625)"/>
     <use xlink:href="#DejaVuSans-68" transform="translate(61.083984 0.015625)"/>
     <use xlink:href="#DejaVuSans-65" transform="translate(124.462891 0.015625)"/>
     <use xlink:href="#DejaVuSans-20" transform="translate(185.986328 0.015625)"/>
     <use xlink:href="#DejaVuSans-73" transform="translate(217.773438 0.015625)"/>
     <use xlink:href="#DejaVuSans-71" transform="translate(269.873047 0.015625)"/>
     <use xlink:href="#DejaVuSans-75" transform="translate(333.349609 0.015625)"/>
     <use xlink:href="#DejaVuSans-61" transform="translate(396.728516 0.015625)"/>
     <use xlink:href="#DejaVuSans-72" transform="translate(458.007812 0.015625)"/>
     <use xlink:href="#DejaVuSans-65" transform="translate(499.121094 0.015625)"/>
     <use xlink:href="#DejaVuSans-20" transform="translate(560.644531 0.015625)"/>
     <use xlink:href="#DejaVuSans-63" transform="translate(592.431641 0.015625)"/>
     <use xlink:href="#DejaVuSans-6f" transform="translate(647.412109 0.015625)"/>
     <use xlink:href="#DejaVuSans-6d" transform="translate(708.59375 0.015625)"/>
     <use xlink:href="#DejaVuSans-6d" transform="translate(806.005859 0.015625)"/>
     <use xlink:href="#DejaVuSans-75" transform="translate(903.417969 0.015625)"/>
     <use xlink:href="#DejaVuSans-74" transform="translate(966.796875 0.015625)"/>
     <use xlink:href="#DejaVuSans-65" transform="translate(1006.005859 0.015625)"/>
     <use xlink:href="#DejaVuSans-73" transform="translate(1067.529297 0.015625)"/>
     <use xlink:href="#DejaVuSans-20" transform="translate(1119.628906 0.015625)"/>
     <use xlink:href="#DejaVuSans-77" transform="translate(1151.416016 0.015625)"/>
     <use xlink:href="#DejaVuSans-68" transform="translate(1233.203125 0.015625)"/>
     <use xlink:href="#DejaVuSans-65" transform="translate(1296.582031 0.015625)"/>
     <use xlink:href="#DejaVuSans-6e" transform="translate(1358.105469 0.015625)"/>
     <use xlink:href="#DejaVuSans-20" transform="translate(1421.484375 0.015625)"/>
     <use xlink:href="#DejaVuSans-Oblique-3b7" transform="translate(1453.271484 0.015625)"/>
     <use xlink:href="#DejaVuSans-Oblique-42" transform="translate(1516.650391 -16.390625) scale(0.7)"/>
     <use xlink:href="#DejaVuSans-2218" transform="translate(1586.889648 0.015625)"/>
     <use xlink:href="#DejaVuSans-Oblique-46" transform="translate(1668.969727 0.015625)"/>
     <use xlink:href="#DejaVuSans-28" transform="translate(1726.489258 0.015625)"/>
     <use xlink:href="#DejaVuSans-Oblique-66" transform="translate(1765.50293 0.015625)"/>
     <use xlink:href="#DejaVuSans-29" transform="translate(1800.708008 0.015625)"/>
     <use xlink:href="#DejaVuSans-3d" transform="translate(1859.204102 0.015625)"/>
     <use xlink:href="#DejaVuSans-Oblique-47" transform="translate(1962.475586 0.015625)"/>
     <use xlink:href="#DejaVuSans-28" transform="translate(2039.96582 0.015625)"/>
     <use xlink:href="#DejaVuSans-Oblique-66" transform="translate(2078.979492 0.015625)"/>
     <use xlink:href="#DejaVuSans-29" transform="translate(2114.18457 0.015625)"/>
     <use xlink:href="#DejaVuSans-2218" transform="translate(2172.680664 0.015625)"/>
     <use xlink:href="#DejaVuSans-Oblique-3b7" transform="translate(2254.760742 0.015625)"/>
     <use xlink:href="#DejaVuSans-Oblique-41" transform="translate(2318.139648 -16.390625) scale(0.7)"/>
     <use xlink:href="#DejaVuSans-2e" transform="translate(2368.759766 0.015625)"/>
    </g>
   </g>
  </g>
 </g>
 <defs>
  <clipPath id="p1b1a1b31ec">
   <rect x="7.2" y="7.2" width="446.4" height="249.48"/>
  </clipPath>
 </defs>
</svg>
