<?xml version="1.0" encoding="utf-8" standalone="no"?>
<!DOCTYPE svg PUBLIC "-//W3C//DTD SVG 1.1//EN"
  "http://www.w3.org/Graphics/SVG/1.1/DTD/svg11.dtd">
<svg xmlns:xlink="http://www.w3.org/1999/xlink" width="460.8pt" height="263.88pt" viewBox="0 0 460.8 263.88" xmlns="http://www.w3.org/2000/svg" version="1.1">
 <metadata>
  <rdf:RDF xmlns:dc="http://purl.org/dc/elements/1.1/" xmlns:cc="http://creativecommons.org/ns#" xmlns:rdf="http://www.w3.org/1999/02/22-rdf-syntax-ns#">
   <cc:Work>
    <dc:type rdf:resource="http://purl.org/dc/dcmitype/StillImage"/>
    <dc:date>2026-04-13T21:01:49.527119</dc:date>
    <dc:format>image/svg+xml</dc:format>
    <dc:creator>
     <cc:Agent>
      <dc:title>Matplotlib v3.10.8, https://matplotlib.org/</dc:title>
     </cc:Agent>
    </dc:creator>
   </cc:Work>
  </rdf:RDF>
 </metadata>
 <defs>
  <style type="text/css">*{stroke-linejoin: round; stroke-linecap: butt}</style>
 </defs>
 <g id="figure_1">
  <g id="patch_1">
   <path d="M 0 263.88 
L 460.8 263.88 
L 460.8 0 
L 0 0 
z
" style="fill: #ffffff"/>
  </g>
  <g id="axes_1">
   <g id="patch_2">
    <path d="M 80.856 90.7758 
L 129.96 90.7758 
Q 138.888 90.7758 138.888 85.7862 
L 138.888 58.3434 
Q 138.888 53.3538 129.96 53.3538 
L 80.856 53.3538 
Q 71.928 53.3538 71.928 58.3434 
L 71.928 85.7862 
Q 71.928 90.7758 80.856 90.7758 
z
" clip-path="url(#p734eaae206)" style="fill: #f6f3ea; stroke: #1f3a5f; stroke-width: 1.8; stroke-linejoin: miter"/>
   </g>
   <g id="patch_3">
    <path d="M 330.84 90.7758 
L 379.944 90.7758 
Q 388.872 90.7758 388.872 85.7862 
L 388.872 58.3434 
Q 388.872 53.3538 379.944 53.3538 
L 330.84 53.3538 
Q 321.912 53.3538 321.912 58.3434 
L 321.912 85.7862 
Q 321.912 90.7758 330.84 90.7758 
z
" clip-path="url(#p734eaae206)" style="fill: #f6f3ea; stroke: #1f3a5f; stroke-width: 1.8; stroke-linejoin: miter"/>
   </g>
   <g id="patch_4">
    <path d="M 80.856 210.5262 
L 129.96 210.5262 
Q 138.888 210.5262 138.888 205.5366 
L 138.888 178.0938 
Q 138.888 173.1042 129.96 173.1042 
L 80.856 173.1042 
Q 71.928 173.1042 71.928 178.0938 
L 71.928 205.5366 
Q 71.928 210.5262 80.856 210.5262 
z
" clip-path="url(#p734eaae206)" style="fill: #f6f3ea; stroke: #1f3a5f; stroke-width: 1.8; stroke-linejoin: miter"/>
   </g>
   <g id="patch_5">
    <path d="M 330.84 210.5262 
L 379.944 210.5262 
Q 388.872 210.5262 388.872 205.5366 
L 388.872 178.0938 
Q 388.872 173.1042 379.944 173.1042 
L 330.84 173.1042 
Q 321.912 173.1042 321.912 178.0938 
L 321.912 205.5366 
Q 321.912 210.5262 330.84 210.5262 
z
" clip-path="url(#p734eaae206)" style="fill: #f6f3ea; stroke: #1f3a5f; stroke-width: 1.8; stroke-linejoin: miter"/>
   </g>
   <g id="patch_6">
    <path d="M 123.408404 72.0648 
Q 230.400289 72.0648 335.379713 72.0648 
" clip-path="url(#p734eaae206)" style="fill: none; stroke: #1f3a5f; stroke-width: 1.8; stroke-linecap: round"/>
    <path d="M 330.179713 69.4648 
L 335.379713 72.0648 
L 330.179713 74.6648 
" clip-path="url(#p734eaae206)" style="fill: none; stroke: #1f3a5f; stroke-width: 1.8; stroke-linecap: round"/>
   </g>
   <g id="patch_7">
    <path d="M 123.408404 191.8152 
Q 230.400289 191.8152 335.379713 191.8152 
" clip-path="url(#p734eaae206)" style="fill: none; stroke: #1f3a5f; stroke-width: 1.8; stroke-linecap: round"/>
    <path d="M 330.179713 189.2152 
L 335.379713 191.8152 
L 330.179713 194.4152 
" clip-path="url(#p734eaae206)" style="fill: none; stroke: #1f3a5f; stroke-width: 1.8; stroke-linecap: round"/>
   </g>
   <g id="patch_8">
    <path d="M 105.408 90.063174 
Q 105.408 131.938691 105.408 171.801747 
" clip-path="url(#p734eaae206)" style="fill: none; stroke: #1f3a5f; stroke-width: 1.8; stroke-linecap: round"/>
    <path d="M 108.008 166.601747 
L 105.408 171.801747 
L 102.808 166.601747 
" clip-path="url(#p734eaae206)" style="fill: none; stroke: #1f3a5f; stroke-width: 1.8; stroke-linecap: round"/>
   </g>
   <g id="patch_9">
    <path d="M 355.392 90.063174 
Q 355.392 131.938691 355.392 171.801747 
" clip-path="url(#p734eaae206)" style="fill: none; stroke: #1f3a5f; stroke-width: 1.8; stroke-linecap: round"/>
    <path d="M 357.992 166.601747 
L 355.392 171.801747 
L 352.792 166.601747 
" clip-path="url(#p734eaae206)" style="fill: none; stroke: #1f3a5f; stroke-width: 1.8; stroke-linecap: round"/>
   </g>
   <g id="text_1">
    <!-- Representation Equivariance -->
    <g style="fill: #1f3a5f" transform="translate(16.128 28.576856) scale(0.15 -0.15)">
     <defs>
      <path id="DejaVuSans-Bold-52" d="M 2297 2597 
Q 2675 2597 2839 2737 
Q 3003 2878 3003 3200 
Q 3003 3519 2839 3656 
Q 2675 3794 2297 3794 
L 1791 3794 
L 1791 2597 
L 2297 2597 
z
M 1791 1766 
L 1791 0 
L 588 0 
L 588 4666 
L 2425 4666 
Q 3347 4666 3776 4356 
Q 4206 4047 4206 3378 
Q 4206 2916 3982 2619 
Q 3759 2322 3309 2181 
Q 3556 2125 3751 1926 
Q 3947 1728 4147 1325 
L 4800 0 
L 3519 0 
L 2950 1159 
Q 2778 1509 2601 1637 
Q 2425 1766 2131 1766 
L 1791 1766 
z
" transform="scale(0.015625)"/>
      <path id="DejaVuSans-Bold-65" d="M 4031 1759 
L 4031 1441 
L 1416 1441 
Q 1456 1047 1700 850 
Q 1944 653 2381 653 
Q 2734 653 3104 758 
Q 3475 863 3866 1075 
L 3866 213 
Q 3469 63 3072 -14 
Q 2675 -91 2278 -91 
Q 1328 -91 801 392 
Q 275 875 275 1747 
Q 275 2603 792 3093 
Q 1309 3584 2216 3584 
Q 3041 3584 3536 3087 
Q 4031 2591 4031 1759 
z
M 2881 2131 
Q 2881 2450 2695 2645 
Q 2509 2841 2209 2841 
Q 1884 2841 1681 2658 
Q 1478 2475 1428 2131 
L 2881 2131 
z
" transform="scale(0.015625)"/>
      <path id="DejaVuSans-Bold-70" d="M 1656 506 
L 1656 -1331 
L 538 -1331 
L 538 3500 
L 1656 3500 
L 1656 2988 
Q 1888 3294 2169 3439 
Q 2450 3584 2816 3584 
Q 3463 3584 3878 3070 
Q 4294 2556 4294 1747 
Q 4294 938 3878 423 
Q 3463 -91 2816 -91 
Q 2450 -91 2169 54 
Q 1888 200 1656 506 
z
M 2400 2772 
Q 2041 2772 1848 2508 
Q 1656 2244 1656 1747 
Q 1656 1250 1848 986 
Q 2041 722 2400 722 
Q 2759 722 2948 984 
Q 3138 1247 3138 1747 
Q 3138 2247 2948 2509 
Q 2759 2772 2400 2772 
z
" transform="scale(0.015625)"/>
      <path id="DejaVuSans-Bold-72" d="M 3138 2547 
Q 2991 2616 2845 2648 
Q 2700 2681 2553 2681 
Q 2122 2681 1889 2404 
Q 1656 2128 1656 1613 
L 1656 0 
L 538 0 
L 538 3500 
L 1656 3500 
L 1656 2925 
Q 1872 3269 2151 3426 
Q 2431 3584 2822 3584 
Q 2878 3584 2943 3579 
Q 3009 3575 3134 3559 
L 3138 2547 
z
" transform="scale(0.015625)"/>
      <path id="DejaVuSans-Bold-73" d="M 3272 3391 
L 3272 2541 
Q 2913 2691 2578 2766 
Q 2244 2841 1947 2841 
Q 1628 2841 1473 2761 
Q 1319 2681 1319 2516 
Q 1319 2381 1436 2309 
Q 1553 2238 1856 2203 
L 2053 2175 
Q 2913 2066 3209 1816 
Q 3506 1566 3506 1031 
Q 3506 472 3093 190 
Q 2681 -91 1863 -91 
Q 1516 -91 1145 -36 
Q 775 19 384 128 
L 384 978 
Q 719 816 1070 734 
Q 1422 653 1784 653 
Q 2113 653 2278 743 
Q 2444 834 2444 1013 
Q 2444 1163 2330 1236 
Q 2216 1309 1875 1350 
L 1678 1375 
Q 931 1469 631 1722 
Q 331 1975 331 2491 
Q 331 3047 712 3315 
Q 1094 3584 1881 3584 
Q 2191 3584 2531 3537 
Q 2872 3491 3272 3391 
z
" transform="scale(0.015625)"/>
      <path id="DejaVuSans-Bold-6e" d="M 4056 2131 
L 4056 0 
L 2931 0 
L 2931 347 
L 2931 1631 
Q 2931 2084 2911 2256 
Q 2891 2428 2841 2509 
Q 2775 2619 2662 2680 
Q 2550 2741 2406 2741 
Q 2056 2741 1856 2470 
Q 1656 2200 1656 1722 
L 1656 0 
L 538 0 
L 538 3500 
L 1656 3500 
L 1656 2988 
Q 1909 3294 2193 3439 
Q 2478 3584 2822 3584 
Q 3428 3584 3742 3212 
Q 4056 2841 4056 2131 
z
" transform="scale(0.015625)"/>
      <path id="DejaVuSans-Bold-74" d="M 1759 4494 
L 1759 3500 
L 2913 3500 
L 2913 2700 
L 1759 2700 
L 1759 1216 
Q 1759 972 1856 886 
Q 1953 800 2241 800 
L 2816 800 
L 2816 0 
L 1856 0 
Q 1194 0 917 276 
Q 641 553 641 1216 
L 641 2700 
L 84 2700 
L 84 3500 
L 641 3500 
L 641 4494 
L 1759 4494 
z
" transform="scale(0.015625)"/>
      <path id="DejaVuSans-Bold-61" d="M 2106 1575 
Q 1756 1575 1579 1456 
Q 1403 1338 1403 1106 
Q 1403 894 1545 773 
Q 1688 653 1941 653 
Q 2256 653 2472 879 
Q 2688 1106 2688 1447 
L 2688 1575 
L 2106 1575 
z
M 3816 1997 
L 3816 0 
L 2688 0 
L 2688 519 
Q 2463 200 2181 54 
Q 1900 -91 1497 -91 
Q 953 -91 614 226 
Q 275 544 275 1050 
Q 275 1666 698 1953 
Q 1122 2241 2028 2241 
L 2688 2241 
L 2688 2328 
Q 2688 2594 2478 2717 
Q 2269 2841 1825 2841 
Q 1466 2841 1156 2769 
Q 847 2697 581 2553 
L 581 3406 
Q 941 3494 1303 3539 
Q 1666 3584 2028 3584 
Q 2975 3584 3395 3211 
Q 3816 2838 3816 1997 
z
" transform="scale(0.015625)"/>
      <path id="DejaVuSans-Bold-69" d="M 538 3500 
L 1656 3500 
L 1656 0 
L 538 0 
L 538 3500 
z
M 538 4863 
L 1656 4863 
L 1656 3950 
L 538 3950 
L 538 4863 
z
" transform="scale(0.015625)"/>
      <path id="DejaVuSans-Bold-6f" d="M 2203 2784 
Q 1831 2784 1636 2517 
Q 1441 2250 1441 1747 
Q 1441 1244 1636 976 
Q 1831 709 2203 709 
Q 2569 709 2762 976 
Q 2956 1244 2956 1747 
Q 2956 2250 2762 2517 
Q 2569 2784 2203 2784 
z
M 2203 3584 
Q 3106 3584 3614 3096 
Q 4122 2609 4122 1747 
Q 4122 884 3614 396 
Q 3106 -91 2203 -91 
Q 1297 -91 786 396 
Q 275 884 275 1747 
Q 275 2609 786 3096 
Q 1297 3584 2203 3584 
z
" transform="scale(0.015625)"/>
      <path id="DejaVuSans-Bold-20" transform="scale(0.015625)"/>
      <path id="DejaVuSans-Bold-45" d="M 588 4666 
L 3834 4666 
L 3834 3756 
L 1791 3756 
L 1791 2888 
L 3713 2888 
L 3713 1978 
L 1791 1978 
L 1791 909 
L 3903 909 
L 3903 0 
L 588 0 
L 588 4666 
z
" transform="scale(0.015625)"/>
      <path id="DejaVuSans-Bold-71" d="M 2181 2772 
Q 1825 2772 1636 2509 
Q 1447 2247 1447 1747 
Q 1447 1247 1636 984 
Q 1825 722 2181 722 
Q 2541 722 2730 984 
Q 2919 1247 2919 1747 
Q 2919 2247 2730 2509 
Q 2541 2772 2181 2772 
z
M 2919 506 
Q 2688 197 2409 53 
Q 2131 -91 1766 -91 
Q 1119 -91 703 423 
Q 288 938 288 1747 
Q 288 2556 703 3067 
Q 1119 3578 1766 3578 
Q 2131 3578 2409 3434 
Q 2688 3291 2919 2981 
L 2919 3500 
L 4044 3500 
L 4044 -1331 
L 2919 -1331 
L 2919 506 
z
" transform="scale(0.015625)"/>
      <path id="DejaVuSans-Bold-75" d="M 500 1363 
L 500 3500 
L 1625 3500 
L 1625 3150 
Q 1625 2866 1622 2436 
Q 1619 2006 1619 1863 
Q 1619 1441 1641 1255 
Q 1663 1069 1716 984 
Q 1784 875 1895 815 
Q 2006 756 2150 756 
Q 2500 756 2700 1025 
Q 2900 1294 2900 1772 
L 2900 3500 
L 4019 3500 
L 4019 0 
L 2900 0 
L 2900 506 
Q 2647 200 2364 54 
Q 2081 -91 1741 -91 
Q 1134 -91 817 281 
Q 500 653 500 1363 
z
" transform="scale(0.015625)"/>
      <path id="DejaVuSans-Bold-76" d="M 97 3500 
L 1216 3500 
L 2088 1081 
L 2956 3500 
L 4078 3500 
L 2700 0 
L 1472 0 
L 97 3500 
z
" transform="scale(0.015625)"/>
      <path id="DejaVuSans-Bold-63" d="M 3366 3391 
L 3366 2478 
Q 3138 2634 2908 2709 
Q 2678 2784 2431 2784 
Q 1963 2784 1702 2511 
Q 1441 2238 1441 1747 
Q 1441 1256 1702 982 
Q 1963 709 2431 709 
Q 2694 709 2930 787 
Q 3166 866 3366 1019 
L 3366 103 
Q 3103 6 2833 -42 
Q 2563 -91 2291 -91 
Q 1344 -91 809 395 
Q 275 881 275 1747 
Q 275 2613 809 3098 
Q 1344 3584 2291 3584 
Q 2566 3584 2833 3536 
Q 3100 3488 3366 3391 
z
" transform="scale(0.015625)"/>
     </defs>
     <use xlink:href="#DejaVuSans-Bold-52"/>
     <use xlink:href="#DejaVuSans-Bold-65" transform="translate(77.001953 0)"/>
     <use xlink:href="#DejaVuSans-Bold-70" transform="translate(144.824219 0)"/>
     <use xlink:href="#DejaVuSans-Bold-72" transform="translate(216.40625 0)"/>
     <use xlink:href="#DejaVuSans-Bold-65" transform="translate(265.722656 0)"/>
     <use xlink:href="#DejaVuSans-Bold-73" transform="translate(333.544922 0)"/>
     <use xlink:href="#DejaVuSans-Bold-65" transform="translate(393.066406 0)"/>
     <use xlink:href="#DejaVuSans-Bold-6e" transform="translate(460.888672 0)"/>
     <use xlink:href="#DejaVuSans-Bold-74" transform="translate(532.080078 0)"/>
     <use xlink:href="#DejaVuSans-Bold-61" transform="translate(579.882812 0)"/>
     <use xlink:href="#DejaVuSans-Bold-74" transform="translate(647.363281 0)"/>
     <use xlink:href="#DejaVuSans-Bold-69" transform="translate(695.166016 0)"/>
     <use xlink:href="#DejaVuSans-Bold-6f" transform="translate(729.443359 0)"/>
     <use xlink:href="#DejaVuSans-Bold-6e" transform="translate(798.144531 0)"/>
     <use xlink:href="#DejaVuSans-Bold-20" transform="translate(869.335938 0)"/>
     <use xlink:href="#DejaVuSans-Bold-45" transform="translate(904.150391 0)"/>
     <use xlink:href="#DejaVuSans-Bold-71" transform="translate(972.460938 0)"/>
     <use xlink:href="#DejaVuSans-Bold-75" transform="translate(1044.042969 0)"/>
     <use xlink:href="#DejaVuSans-Bold-69" transform="translate(1115.234375 0)"/>
     <use xlink:href="#DejaVuSans-Bold-76" transform="translate(1149.511719 0)"/>
     <use xlink:href="#DejaVuSans-Bold-61" transform="translate(1214.697266 0)"/>
     <use xlink:href="#DejaVuSans-Bold-72" transform="translate(1282.177734 0)"/>
     <use xlink:href="#DejaVuSans-Bold-69" transform="translate(1331.494141 0)"/>
     <use xlink:href="#DejaVuSans-Bold-61" transform="translate(1365.771484 0)"/>
     <use xlink:href="#DejaVuSans-Bold-6e" transform="translate(1433.251953 0)"/>
     <use xlink:href="#DejaVuSans-Bold-63" transform="translate(1504.443359 0)"/>
     <use xlink:href="#DejaVuSans-Bold-65" transform="translate(1563.720703 0)"/>
    </g>
   </g>
   <g id="text_2">
    <!-- $X$ -->
    <g transform="translate(100.923 75.651987) scale(0.13 -0.13)">
     <defs>
      <path id="DejaVuSans-Oblique-58" d="M 878 4666 
L 1516 4666 
L 2316 2981 
L 3763 4666 
L 4500 4666 
L 2578 2438 
L 3738 0 
L 3103 0 
L 2163 1966 
L 459 0 
L -275 0 
L 1906 2509 
L 878 4666 
z
" transform="scale(0.015625)"/>
     </defs>
     <use xlink:href="#DejaVuSans-Oblique-58" transform="translate(0 0.09375)"/>
    </g>
   </g>
   <g id="text_3">
    <!-- $X$ -->
    <g transform="translate(350.907 75.651987) scale(0.13 -0.13)">
     <use xlink:href="#DejaVuSans-Oblique-58" transform="translate(0 0.09375)"/>
    </g>
   </g>
   <g id="text_4">
    <!-- $Z$ -->
    <g transform="translate(100.923 195.402387) scale(0.13 -0.13)">
     <defs>
      <path id="DejaVuSans-Oblique-5a" d="M 838 4666 
L 4500 4666 
L 4409 4184 
L 794 531 
L 3769 531 
L 3669 0 
L -141 0 
L -50 481 
L 3566 4134 
L 738 4134 
L 838 4666 
z
" transform="scale(0.015625)"/>
     </defs>
     <use xlink:href="#DejaVuSans-Oblique-5a" transform="translate(0 0.09375)"/>
    </g>
   </g>
   <g id="text_5">
    <!-- $Z$ -->
    <g transform="translate(350.907 195.402387) scale(0.13 -0.13)">
     <use xlink:href="#DejaVuSans-Oblique-5a" transform="translate(0 0.09375)"/>
    </g>
   </g>
   <g id="text_6">
    <!-- $a$ -->
    <g style="fill: #1f3a5f" transform="translate(226.68 62.90205) scale(0.12 -0.12)">
     <defs>
      <path id="DejaVuSans-Oblique-61" d="M 3438 1997 
L 3047 0 
L 2472 0 
L 2578 531 
Q 2325 219 2001 64 
Q 1678 -91 1281 -91 
Q 834 -91 548 182 
Q 263 456 263 884 
Q 263 1497 752 1853 
Q 1241 2209 2100 2209 
L 2900 2209 
L 2931 2363 
Q 2938 2388 2941 2417 
Q 2944 2447 2944 2509 
Q 2944 2788 2717 2942 
Q 2491 3097 2081 3097 
Q 1800 3097 1504 3025 
Q 1209 2953 897 2809 
L 997 3341 
Q 1322 3463 1633 3523 
Q 1944 3584 2234 3584 
Q 2853 3584 3176 3315 
Q 3500 3047 3500 2534 
Q 3500 2431 3484 2292 
Q 3469 2153 3438 1997 
z
M 2816 1759 
L 2241 1759 
Q 1534 1759 1195 1570 
Q 856 1381 856 984 
Q 856 709 1029 553 
Q 1203 397 1509 397 
Q 1978 397 2328 733 
Q 2678 1069 2791 1631 
L 2816 1759 
z
" transform="scale(0.015625)"/>
     </defs>
     <use xlink:href="#DejaVuSans-Oblique-61"/>
    </g>
   </g>
   <g id="text_7">
    <!-- $\tilde{a}$ -->
    <g style="fill: #1f3a5f" transform="translate(226.68 182.65245) scale(0.12 -0.12)">
     <defs>
      <path id="DejaVuSans-303" d="M -1621 4281 
L -1799 4453 
Q -1867 4516 -1919 4545 
Q -1971 4575 -2011 4575 
Q -2130 4575 -2186 4461 
Q -2242 4347 -2249 4091 
L -2639 4091 
Q -2633 4513 -2473 4742 
Q -2314 4972 -2030 4972 
Q -1911 4972 -1811 4928 
Q -1711 4884 -1596 4781 
L -1417 4609 
Q -1349 4547 -1297 4517 
Q -1246 4488 -1205 4488 
Q -1086 4488 -1030 4602 
Q -974 4716 -967 4972 
L -577 4972 
Q -583 4550 -742 4320 
Q -902 4091 -1186 4091 
Q -1305 4091 -1405 4134 
Q -1505 4178 -1621 4281 
z
" transform="scale(0.015625)"/>
     </defs>
     <use xlink:href="#DejaVuSans-303" transform="translate(63.554199 5.3125)"/>
     <use xlink:href="#DejaVuSans-Oblique-61" transform="translate(0 0.734375)"/>
    </g>
   </g>
   <g id="text_8">
    <!-- $e$ -->
    <g style="fill: #1f3a5f" transform="translate(119.544 135.25125) scale(0.12 -0.12)">
     <defs>
      <path id="DejaVuSans-Oblique-65" d="M 3078 2063 
Q 3088 2113 3092 2166 
Q 3097 2219 3097 2272 
Q 3097 2653 2873 2875 
Q 2650 3097 2266 3097 
Q 1838 3097 1509 2826 
Q 1181 2556 1013 2059 
L 3078 2063 
z
M 3578 1613 
L 903 1613 
Q 884 1494 878 1425 
Q 872 1356 872 1306 
Q 872 872 1139 634 
Q 1406 397 1894 397 
Q 2269 397 2603 481 
Q 2938 566 3225 728 
L 3116 159 
Q 2806 34 2476 -28 
Q 2147 -91 1806 -91 
Q 1078 -91 686 257 
Q 294 606 294 1247 
Q 294 1794 489 2264 
Q 684 2734 1063 3103 
Q 1306 3334 1642 3459 
Q 1978 3584 2356 3584 
Q 2950 3584 3301 3228 
Q 3653 2872 3653 2272 
Q 3653 2128 3634 1964 
Q 3616 1800 3578 1613 
z
" transform="scale(0.015625)"/>
     </defs>
     <use xlink:href="#DejaVuSans-Oblique-65"/>
    </g>
   </g>
   <g id="text_9">
    <!-- $e$ -->
    <g style="fill: #1f3a5f" transform="translate(369.528 135.25125) scale(0.12 -0.12)">
     <use xlink:href="#DejaVuSans-Oblique-65"/>
    </g>
   </g>
   <g id="text_10">
    <!-- The equality $e \circ a = \tilde{a} \circ e$ expresses equivariant representation transport. -->
    <g style="fill: #7a8796" transform="translate(16.128 239.4012) scale(0.11 -0.11)">
     <defs>
      <path id="DejaVuSans-54" d="M -19 4666 
L 3928 4666 
L 3928 4134 
L 2272 4134 
L 2272 0 
L 1638 0 
L 1638 4134 
L -19 4134 
L -19 4666 
z
" transform="scale(0.015625)"/>
      <path id="DejaVuSans-68" d="M 3513 2113 
L 3513 0 
L 2938 0 
L 2938 2094 
Q 2938 2591 2744 2837 
Q 2550 3084 2163 3084 
Q 1697 3084 1428 2787 
Q 1159 2491 1159 1978 
L 1159 0 
L 581 0 
L 581 4863 
L 1159 4863 
L 1159 2956 
Q 1366 3272 1645 3428 
Q 1925 3584 2291 3584 
Q 2894 3584 3203 3211 
Q 3513 2838 3513 2113 
z
" transform="scale(0.015625)"/>
      <path id="DejaVuSans-65" d="M 3597 1894 
L 3597 1613 
L 953 1613 
Q 991 1019 1311 708 
Q 1631 397 2203 397 
Q 2534 397 2845 478 
Q 3156 559 3463 722 
L 3463 178 
Q 3153 47 2828 -22 
Q 2503 -91 2169 -91 
Q 1331 -91 842 396 
Q 353 884 353 1716 
Q 353 2575 817 3079 
Q 1281 3584 2069 3584 
Q 2775 3584 3186 3129 
Q 3597 2675 3597 1894 
z
M 3022 2063 
Q 3016 2534 2758 2815 
Q 2500 3097 2075 3097 
Q 1594 3097 1305 2825 
Q 1016 2553 972 2059 
L 3022 2063 
z
" transform="scale(0.015625)"/>
      <path id="DejaVuSans-20" transform="scale(0.015625)"/>
      <path id="DejaVuSans-71" d="M 947 1747 
Q 947 1113 1208 752 
Q 1469 391 1925 391 
Q 2381 391 2643 752 
Q 2906 1113 2906 1747 
Q 2906 2381 2643 2742 
Q 2381 3103 1925 3103 
Q 1469 3103 1208 2742 
Q 947 2381 947 1747 
z
M 2906 525 
Q 2725 213 2448 61 
Q 2172 -91 1784 -91 
Q 1150 -91 751 415 
Q 353 922 353 1747 
Q 353 2572 751 3078 
Q 1150 3584 1784 3584 
Q 2172 3584 2448 3432 
Q 2725 3281 2906 2969 
L 2906 3500 
L 3481 3500 
L 3481 -1331 
L 2906 -1331 
L 2906 525 
z
" transform="scale(0.015625)"/>
      <path id="DejaVuSans-75" d="M 544 1381 
L 544 3500 
L 1119 3500 
L 1119 1403 
Q 1119 906 1312 657 
Q 1506 409 1894 409 
Q 2359 409 2629 706 
Q 2900 1003 2900 1516 
L 2900 3500 
L 3475 3500 
L 3475 0 
L 2900 0 
L 2900 538 
Q 2691 219 2414 64 
Q 2138 -91 1772 -91 
Q 1169 -91 856 284 
Q 544 659 544 1381 
z
M 1991 3584 
L 1991 3584 
z
" transform="scale(0.015625)"/>
      <path id="DejaVuSans-61" d="M 2194 1759 
Q 1497 1759 1228 1600 
Q 959 1441 959 1056 
Q 959 750 1161 570 
Q 1363 391 1709 391 
Q 2188 391 2477 730 
Q 2766 1069 2766 1631 
L 2766 1759 
L 2194 1759 
z
M 3341 1997 
L 3341 0 
L 2766 0 
L 2766 531 
Q 2569 213 2275 61 
Q 1981 -91 1556 -91 
Q 1019 -91 701 211 
Q 384 513 384 1019 
Q 384 1609 779 1909 
Q 1175 2209 1959 2209 
L 2766 2209 
L 2766 2266 
Q 2766 2663 2505 2880 
Q 2244 3097 1772 3097 
Q 1472 3097 1187 3025 
Q 903 2953 641 2809 
L 641 3341 
Q 956 3463 1253 3523 
Q 1550 3584 1831 3584 
Q 2591 3584 2966 3190 
Q 3341 2797 3341 1997 
z
" transform="scale(0.015625)"/>
      <path id="DejaVuSans-6c" d="M 603 4863 
L 1178 4863 
L 1178 0 
L 603 0 
L 603 4863 
z
" transform="scale(0.015625)"/>
      <path id="DejaVuSans-69" d="M 603 3500 
L 1178 3500 
L 1178 0 
L 603 0 
L 603 3500 
z
M 603 4863 
L 1178 4863 
L 1178 4134 
L 603 4134 
L 603 4863 
z
" transform="scale(0.015625)"/>
      <path id="DejaVuSans-74" d="M 1172 4494 
L 1172 3500 
L 2356 3500 
L 2356 3053 
L 1172 3053 
L 1172 1153 
Q 1172 725 1289 603 
Q 1406 481 1766 481 
L 2356 481 
L 2356 0 
L 1766 0 
Q 1100 0 847 248 
Q 594 497 594 1153 
L 594 3053 
L 172 3053 
L 172 3500 
L 594 3500 
L 594 4494 
L 1172 4494 
z
" transform="scale(0.015625)"/>
      <path id="DejaVuSans-79" d="M 2059 -325 
Q 1816 -950 1584 -1140 
Q 1353 -1331 966 -1331 
L 506 -1331 
L 506 -850 
L 844 -850 
Q 1081 -850 1212 -737 
Q 1344 -625 1503 -206 
L 1606 56 
L 191 3500 
L 800 3500 
L 1894 763 
L 2988 3500 
L 3597 3500 
L 2059 -325 
z
" transform="scale(0.015625)"/>
      <path id="DejaVuSans-2218" d="M 2000 2619 
Q 1750 2619 1578 2445 
Q 1406 2272 1406 2022 
Q 1406 1775 1578 1605 
Q 1750 1435 2000 1435 
Q 2250 1435 2422 1605 
Q 2594 1775 2594 2022 
Q 2594 2269 2420 2444 
Q 2247 2619 2000 2619 
z
M 2000 3022 
Q 2200 3022 2384 2945 
Q 2569 2869 2703 2725 
Q 2847 2585 2919 2406 
Q 2991 2228 2991 2022 
Q 2991 1610 2702 1324 
Q 2413 1038 1994 1038 
Q 1572 1038 1290 1319 
Q 1009 1600 1009 2022 
Q 1009 2441 1296 2731 
Q 1584 3022 2000 3022 
z
" transform="scale(0.015625)"/>
      <path id="DejaVuSans-3d" d="M 678 2906 
L 4684 2906 
L 4684 2381 
L 678 2381 
L 678 2906 
z
M 678 1631 
L 4684 1631 
L 4684 1100 
L 678 1100 
L 678 1631 
z
" transform="scale(0.015625)"/>
      <path id="DejaVuSans-78" d="M 3513 3500 
L 2247 1797 
L 3578 0 
L 2900 0 
L 1881 1375 
L 863 0 
L 184 0 
L 1544 1831 
L 300 3500 
L 978 3500 
L 1906 2253 
L 2834 3500 
L 3513 3500 
z
" transform="scale(0.015625)"/>
      <path id="DejaVuSans-70" d="M 1159 525 
L 1159 -1331 
L 581 -1331 
L 581 3500 
L 1159 3500 
L 1159 2969 
Q 1341 3281 1617 3432 
Q 1894 3584 2278 3584 
Q 2916 3584 3314 3078 
Q 3713 2572 3713 1747 
Q 3713 922 3314 415 
Q 2916 -91 2278 -91 
Q 1894 -91 1617 61 
Q 1341 213 1159 525 
z
M 3116 1747 
Q 3116 2381 2855 2742 
Q 2594 3103 2138 3103 
Q 1681 3103 1420 2742 
Q 1159 2381 1159 1747 
Q 1159 1113 1420 752 
Q 1681 391 2138 391 
Q 2594 391 2855 752 
Q 3116 1113 3116 1747 
z
" transform="scale(0.015625)"/>
      <path id="DejaVuSans-72" d="M 2631 2963 
Q 2534 3019 2420 3045 
Q 2306 3072 2169 3072 
Q 1681 3072 1420 2755 
Q 1159 2438 1159 1844 
L 1159 0 
L 581 0 
L 581 3500 
L 1159 3500 
L 1159 2956 
Q 1341 3275 1631 3429 
Q 1922 3584 2338 3584 
Q 2397 3584 2469 3576 
Q 2541 3569 2628 3553 
L 2631 2963 
z
" transform="scale(0.015625)"/>
      <path id="DejaVuSans-73" d="M 2834 3397 
L 2834 2853 
Q 2591 2978 2328 3040 
Q 2066 3103 1784 3103 
Q 1356 3103 1142 2972 
Q 928 2841 928 2578 
Q 928 2378 1081 2264 
Q 1234 2150 1697 2047 
L 1894 2003 
Q 2506 1872 2764 1633 
Q 3022 1394 3022 966 
Q 3022 478 2636 193 
Q 2250 -91 1575 -91 
Q 1294 -91 989 -36 
Q 684 19 347 128 
L 347 722 
Q 666 556 975 473 
Q 1284 391 1588 391 
Q 1994 391 2212 530 
Q 2431 669 2431 922 
Q 2431 1156 2273 1281 
Q 2116 1406 1581 1522 
L 1381 1569 
Q 847 1681 609 1914 
Q 372 2147 372 2553 
Q 372 3047 722 3315 
Q 1072 3584 1716 3584 
Q 2034 3584 2315 3537 
Q 2597 3491 2834 3397 
z
" transform="scale(0.015625)"/>
      <path id="DejaVuSans-76" d="M 191 3500 
L 800 3500 
L 1894 563 
L 2988 3500 
L 3597 3500 
L 2284 0 
L 1503 0 
L 191 3500 
z
" transform="scale(0.015625)"/>
      <path id="DejaVuSans-6e" d="M 3513 2113 
L 3513 0 
L 2938 0 
L 2938 2094 
Q 2938 2591 2744 2837 
Q 2550 3084 2163 3084 
Q 1697 3084 1428 2787 
Q 1159 2491 1159 1978 
L 1159 0 
L 581 0 
L 581 3500 
L 1159 3500 
L 1159 2956 
Q 1366 3272 1645 3428 
Q 1925 3584 2291 3584 
Q 2894 3584 3203 3211 
Q 3513 2838 3513 2113 
z
" transform="scale(0.015625)"/>
      <path id="DejaVuSans-6f" d="M 1959 3097 
Q 1497 3097 1228 2736 
Q 959 2375 959 1747 
Q 959 1119 1226 758 
Q 1494 397 1959 397 
Q 2419 397 2687 759 
Q 2956 1122 2956 1747 
Q 2956 2369 2687 2733 
Q 2419 3097 1959 3097 
z
M 1959 3584 
Q 2709 3584 3137 3096 
Q 3566 2609 3566 1747 
Q 3566 888 3137 398 
Q 2709 -91 1959 -91 
Q 1206 -91 779 398 
Q 353 888 353 1747 
Q 353 2609 779 3096 
Q 1206 3584 1959 3584 
z
" transform="scale(0.015625)"/>
      <path id="DejaVuSans-2e" d="M 684 794 
L 1344 794 
L 1344 0 
L 684 0 
L 684 794 
z
" transform="scale(0.015625)"/>
     </defs>
     <use xlink:href="#DejaVuSans-54" transform="translate(0 0.734375)"/>
     <use xlink:href="#DejaVuSans-68" transform="translate(61.083984 0.734375)"/>
     <use xlink:href="#DejaVuSans-65" transform="translate(124.462891 0.734375)"/>
     <use xlink:href="#DejaVuSans-20" transform="translate(185.986328 0.734375)"/>
     <use xlink:href="#DejaVuSans-65" transform="translate(217.773438 0.734375)"/>
     <use xlink:href="#DejaVuSans-71" transform="translate(279.296875 0.734375)"/>
     <use xlink:href="#DejaVuSans-75" transform="translate(342.773438 0.734375)"/>
     <use xlink:href="#DejaVuSans-61" transform="translate(406.152344 0.734375)"/>
     <use xlink:href="#DejaVuSans-6c" transform="translate(467.431641 0.734375)"/>
     <use xlink:href="#DejaVuSans-69" transform="translate(495.214844 0.734375)"/>
     <use xlink:href="#DejaVuSans-74" transform="translate(522.998047 0.734375)"/>
     <use xlink:href="#DejaVuSans-79" transform="translate(562.207031 0.734375)"/>
     <use xlink:href="#DejaVuSans-20" transform="translate(621.386719 0.734375)"/>
     <use xlink:href="#DejaVuSans-Oblique-65" transform="translate(653.173828 0.734375)"/>
     <use xlink:href="#DejaVuSans-2218" transform="translate(734.179688 0.734375)"/>
     <use xlink:href="#DejaVuSans-Oblique-61" transform="translate(816.259766 0.734375)"/>
     <use xlink:href="#DejaVuSans-3d" transform="translate(897.021484 0.734375)"/>
     <use xlink:href="#DejaVuSans-303" transform="translate(1063.847168 5.3125)"/>
     <use xlink:href="#DejaVuSans-Oblique-61" transform="translate(1000.292969 0.734375)"/>
     <use xlink:href="#DejaVuSans-2218" transform="translate(1081.054688 0.734375)"/>
     <use xlink:href="#DejaVuSans-Oblique-65" transform="translate(1163.134766 0.734375)"/>
     <use xlink:href="#DejaVuSans-20" transform="translate(1224.658203 0.734375)"/>
     <use xlink:href="#DejaVuSans-65" transform="translate(1256.445312 0.734375)"/>
     <use xlink:href="#DejaVuSans-78" transform="translate(1317.96875 0.734375)"/>
     <use xlink:href="#DejaVuSans-70" transform="translate(1377.148438 0.734375)"/>
     <use xlink:href="#DejaVuSans-72" transform="translate(1440.625 0.734375)"/>
     <use xlink:href="#DejaVuSans-65" transform="translate(1481.738281 0.734375)"/>
     <use xlink:href="#DejaVuSans-73" transform="translate(1543.261719 0.734375)"/>
     <use xlink:href="#DejaVuSans-73" transform="translate(1595.361328 0.734375)"/>
     <use xlink:href="#DejaVuSans-65" transform="translate(1647.460938 0.734375)"/>
     <use xlink:href="#DejaVuSans-73" transform="translate(1708.984375 0.734375)"/>
     <use xlink:href="#DejaVuSans-20" transform="translate(1761.083984 0.734375)"/>
     <use xlink:href="#DejaVuSans-65" transform="translate(1792.871094 0.734375)"/>
     <use xlink:href="#DejaVuSans-71" transform="translate(1854.394531 0.734375)"/>
     <use xlink:href="#DejaVuSans-75" transform="translate(1917.871094 0.734375)"/>
     <use xlink:href="#DejaVuSans-69" transform="translate(1981.25 0.734375)"/>
     <use xlink:href="#DejaVuSans-76" transform="translate(2009.033203 0.734375)"/>
     <use xlink:href="#DejaVuSans-61" transform="translate(2068.212891 0.734375)"/>
     <use xlink:href="#DejaVuSans-72" transform="translate(2129.492188 0.734375)"/>
     <use xlink:href="#DejaVuSans-69" transform="translate(2170.605469 0.734375)"/>
     <use xlink:href="#DejaVuSans-61" transform="translate(2198.388672 0.734375)"/>
     <use xlink:href="#DejaVuSans-6e" transform="translate(2259.667969 0.734375)"/>
     <use xlink:href="#DejaVuSans-74" transform="translate(2323.046875 0.734375)"/>
     <use xlink:href="#DejaVuSans-20" transform="translate(2362.255859 0.734375)"/>
     <use xlink:href="#DejaVuSans-72" transform="translate(2394.042969 0.734375)"/>
     <use xlink:href="#DejaVuSans-65" transform="translate(2435.15625 0.734375)"/>
     <use xlink:href="#DejaVuSans-70" transform="translate(2496.679688 0.734375)"/>
     <use xlink:href="#DejaVuSans-72" transform="translate(2560.15625 0.734375)"/>
     <use xlink:href="#DejaVuSans-65" transform="translate(2601.269531 0.734375)"/>
     <use xlink:href="#DejaVuSans-73" transform="translate(2662.792969 0.734375)"/>
     <use xlink:href="#DejaVuSans-65" transform="translate(2714.892578 0.734375)"/>
     <use xlink:href="#DejaVuSans-6e" transform="translate(2776.416016 0.734375)"/>
     <use xlink:href="#DejaVuSans-74" transform="translate(2839.794922 0.734375)"/>
     <use xlink:href="#DejaVuSans-61" transform="translate(2879.003906 0.734375)"/>
     <use xlink:href="#DejaVuSans-74" transform="translate(2940.283203 0.734375)"/>
     <use xlink:href="#DejaVuSans-69" transform="translate(2979.492188 0.734375)"/>
     <use xlink:href="#DejaVuSans-6f" transform="translate(3007.275391 0.734375)"/>
     <use xlink:href="#DejaVuSans-6e" transform="translate(3068.457031 0.734375)"/>
     <use xlink:href="#DejaVuSans-20" transform="translate(3131.835938 0.734375)"/>
     <use xlink:href="#DejaVuSans-74" transform="translate(3163.623047 0.734375)"/>
     <use xlink:href="#DejaVuSans-72" transform="translate(3202.832031 0.734375)"/>
     <use xlink:href="#DejaVuSans-61" transform="translate(3243.945312 0.734375)"/>
     <use xlink:href="#DejaVuSans-6e" transform="translate(3305.224609 0.734375)"/>
     <use xlink:href="#DejaVuSans-73" transform="translate(3368.603516 0.734375)"/>
     <use xlink:href="#DejaVuSans-70" transform="translate(3420.703125 0.734375)"/>
     <use xlink:href="#DejaVuSans-6f" transform="translate(3484.179688 0.734375)"/>
     <use xlink:href="#DejaVuSans-72" transform="translate(3545.361328 0.734375)"/>
     <use xlink:href="#DejaVuSans-74" transform="translate(3586.474609 0.734375)"/>
     <use xlink:href="#DejaVuSans-2e" transform="translate(3625.683594 0.734375)"/>
    </g>
   </g>
  </g>
 </g>
 <defs>
  <clipPath id="p734eaae206">
   <rect x="7.2" y="7.2" width="446.4" height="249.48"/>
  </clipPath>
 </defs>
</svg>
